<svg width="24" height="30" viewBox="0 0 24 30" fill="none" xmlns="http://www.w3.org/2000/svg">
<g id="Icon" clip-path="url(#clip0_702_1900)">
<path id="Vector" d="M23.1579 20.3946C23.1579 20.6907 23.1031 21.0772 22.9934 21.5542C22.8838 22.0312 22.7686 22.4067 22.648 22.6808C22.4178 23.2291 21.7489 23.8102 20.6415 24.4242C19.6108 24.9835 18.591 25.2631 17.5822 25.2631C17.2862 25.2631 16.9984 25.2439 16.7188 25.2055C16.4391 25.1671 16.1239 25.0986 15.773 24.9999C15.4222 24.9012 15.1617 24.8217 14.9918 24.7614C14.8218 24.7011 14.5175 24.5887 14.079 24.4242C13.6404 24.2598 13.3717 24.1611 13.273 24.1282C12.1985 23.7444 11.239 23.2894 10.3947 22.7631C8.99123 21.8968 7.54112 20.7154 6.04441 19.2187C4.5477 17.7219 3.36623 16.2718 2.5 14.8683C1.97368 14.024 1.51864 13.0646 1.13487 11.99C1.10197 11.8913 1.00329 11.6227 0.838816 11.1841C0.674342 10.7455 0.561952 10.4412 0.501645 10.2713C0.441338 10.1013 0.361842 9.84091 0.263158 9.49003C0.164474 9.13915 0.095943 8.82391 0.0575658 8.54431C0.0191886 8.2647 0 7.97687 0 7.68082C0 6.67205 0.279605 5.65231 0.838816 4.62161C1.45285 3.51415 2.03399 2.84529 2.58224 2.61503C2.85636 2.49442 3.23191 2.37928 3.70888 2.26963C4.18586 2.15998 4.57237 2.10516 4.86842 2.10516C5.02193 2.10516 5.13706 2.12161 5.21382 2.1545C5.41119 2.22029 5.70176 2.63696 6.08553 3.4045C6.20614 3.61284 6.37062 3.90889 6.57895 4.29266C6.78728 4.67643 6.97917 5.02457 7.15461 5.33707C7.33005 5.64957 7.5 5.94288 7.66448 6.217C7.69737 6.26086 7.79331 6.39792 7.9523 6.62819C8.1113 6.85845 8.22917 7.05308 8.30592 7.21207C8.38268 7.37106 8.42105 7.52731 8.42105 7.68082C8.42105 7.90012 8.2648 8.17424 7.9523 8.50319C7.6398 8.83214 7.29989 9.13367 6.93257 9.40779C6.56524 9.68192 6.22533 9.97249 5.91283 10.2795C5.60033 10.5865 5.44408 10.8387 5.44408 11.0361C5.44408 11.1348 5.47149 11.2581 5.52632 11.4061C5.58114 11.5542 5.62774 11.6666 5.66612 11.7433C5.7045 11.8201 5.78125 11.9517 5.89638 12.1381C6.01151 12.3245 6.07456 12.4286 6.08553 12.4506C6.91886 13.9528 7.87281 15.2411 8.94737 16.3157C10.0219 17.3903 11.3103 18.3442 12.8125 19.1775C12.8344 19.1885 12.9386 19.2515 13.125 19.3667C13.3114 19.4818 13.443 19.5586 13.5197 19.5969C13.5965 19.6353 13.7089 19.6819 13.8569 19.7367C14.0049 19.7916 14.1283 19.819 14.227 19.819C14.4243 19.819 14.6765 19.6627 14.9836 19.3502C15.2906 19.0377 15.5811 18.6978 15.8553 18.3305C16.1294 17.9632 16.4309 17.6233 16.7599 17.3108C17.0888 16.9983 17.3629 16.842 17.5822 16.842C17.7358 16.842 17.892 16.8804 18.051 16.9571C18.21 17.0339 18.4046 17.1518 18.6349 17.3108C18.8651 17.4697 19.0022 17.5657 19.0461 17.5986C19.3202 17.7631 19.6135 17.933 19.926 18.1085C20.2385 18.2839 20.5866 18.4758 20.9704 18.6841C21.3542 18.8924 21.6502 19.0569 21.8586 19.1775C22.6261 19.5613 23.0428 19.8519 23.1086 20.0492C23.1415 20.126 23.1579 20.2411 23.1579 20.3946Z" fill="#0066FF"/>
</g>
<defs>
<clipPath id="clip0_702_1900">
<rect width="23.1579" height="29.4737" fill="white" transform="matrix(1 0 0 -1 0 29.4736)"/>
</clipPath>
</defs>
</svg>
