<svg width="102" height="102" viewBox="0 0 102 102" fill="none" xmlns="http://www.w3.org/2000/svg">
<circle cx="51" cy="51" r="51" fill="#F58220"/>
<path d="M25.3053 79C23.9743 79 22.9239 78.5753 22.1541 77.7234C21.4441 76.937 21.061 75.9055 21.0073 74.6289L21 74.3049V28.6963C21 27.2522 21.3843 26.1079 22.1541 25.2657C22.8641 24.4878 23.8133 24.068 25.0027 24.0085L25.3065 24H58.0104C59.3243 24 60.365 24.4211 61.136 25.2645C61.846 26.0411 62.2279 27.0763 62.2828 28.3674L62.2889 28.6951V36.6921H77.7215C78.933 36.6921 79.9151 37.0562 80.6629 37.7806L80.8459 37.9699C81.5559 38.7551 81.939 39.7866 81.9927 41.0632L82 41.3872V74.3049C82 75.732 81.6157 76.8715 80.8459 77.7234C80.1359 78.5085 79.1928 78.932 78.0192 78.9927L77.7203 79H25.3053ZM62.2876 74.3049C62.2876 74.4906 62.2815 74.6714 62.2681 74.8474H76.3442C76.8456 74.8474 77.2177 74.726 77.4605 74.4857C77.6679 74.2794 77.7862 73.9712 77.8155 73.5635L77.824 73.3511V42.3422C77.824 41.8265 77.702 41.4479 77.4605 41.2064C77.2531 41.0001 76.9493 40.8824 76.5516 40.8533L76.3442 40.846L62.2876 40.8448V74.3049ZM56.6355 28.1539H26.6802C26.1605 28.1539 25.7811 28.274 25.5383 28.5143C25.3309 28.7206 25.2126 29.0288 25.1833 29.4365L25.176 29.6501V73.3511C25.176 73.8668 25.2968 74.2442 25.5383 74.4857C25.7457 74.692 26.0556 74.8097 26.4655 74.8389L26.6802 74.8474L32.6178 74.8461V67.2374C32.6178 66.2205 32.8301 65.4487 33.2522 64.9233L33.384 64.7728C33.8476 64.2959 34.5368 64.0362 35.4506 63.9925L35.7312 63.9864H47.5576C48.6288 63.9864 49.4157 64.2485 49.9171 64.7728C50.3734 65.2497 50.6222 65.9717 50.6637 66.9389L50.6698 67.2362L50.6686 74.8461H56.6343C57.1357 74.8461 57.5078 74.726 57.7493 74.4857C57.9567 74.2794 58.0763 73.9712 58.1056 73.5635L58.1129 73.3511V29.6501C58.1129 29.1332 57.9909 28.7558 57.7493 28.5143C57.5078 28.274 57.1369 28.1539 56.6355 28.1539ZM46.4426 67.3661H36.8463C36.3436 67.3661 36.0691 67.593 36.0228 68.0481L36.0167 68.1912L36.0155 74.8461H47.271V68.1912C47.271 67.6913 47.0428 67.4182 46.5865 67.3721L46.4426 67.3661ZM72.1438 64.8116C72.6818 64.8116 72.9734 65.0567 73.0185 65.5482L73.0246 65.689V69.713C73.0246 70.2494 72.7782 70.5394 72.2841 70.5843L72.1438 70.5904H67.9678C67.4445 70.5904 67.1627 70.344 67.1175 69.8538L67.1126 69.713V65.689C67.1126 65.1526 67.3518 64.8626 67.8324 64.8177L67.9678 64.8116H72.1438ZM72.1438 54.9579C72.6818 54.9579 72.9734 55.203 73.0185 55.6945L73.0246 55.8341V59.8581C73.0246 60.3944 72.7782 60.6845 72.2841 60.7294L72.1438 60.7354H67.9678C67.4445 60.7354 67.1627 60.4903 67.1175 59.9988L67.1126 59.8581V55.8341C67.1126 55.2977 67.3518 55.0077 67.8324 54.9628L67.9678 54.9567L72.1438 54.9579ZM38.0906 52.867C38.7458 52.867 39.0983 53.168 39.1484 53.7687L39.1545 53.9252V58.8011C39.1545 59.4515 38.8519 59.8022 38.248 59.852L38.0906 59.8581H33.0338C32.4117 59.8581 32.0762 59.5583 32.0286 58.9576L32.0225 58.7999V53.9252C32.0225 53.2748 32.3092 52.9241 32.8838 52.8731L33.0338 52.867H38.0906ZM50.2294 52.867C50.8833 52.867 51.2347 53.168 51.2859 53.7687L51.292 53.9252V58.8011C51.292 59.4515 50.9894 59.8022 50.3856 59.852L50.2282 59.8581H45.197C44.5589 59.8581 44.2149 59.5583 44.1661 58.9576L44.16 58.7999V53.9252C44.16 53.2748 44.454 52.9241 45.0433 52.8731L45.197 52.867H50.2294ZM72.1438 45.1018C72.6818 45.1018 72.9734 45.3481 73.0185 45.8396L73.0246 45.9791V50.0043C73.0246 50.5395 72.7782 50.8295 72.2841 50.8744L72.1438 50.8805H67.9678C67.4445 50.8805 67.1627 50.6354 67.1175 50.1439L67.1126 50.0043V45.9791C67.1126 45.444 67.3518 45.1539 67.8324 45.1078L67.9678 45.1018H72.1438ZM38.0906 42.6505C38.7458 42.6505 39.0983 42.9514 39.1484 43.5533L39.1545 43.7086V48.5845C39.1545 49.2362 38.8519 49.5869 38.248 49.6367L38.0906 49.6427H33.0338C32.4117 49.6427 32.0762 49.3418 32.0286 48.7411L32.0225 48.5845V43.7086C32.0225 43.0582 32.3092 42.7075 32.8838 42.6577L33.0338 42.6517L38.0906 42.6505ZM50.2294 42.6505C50.8833 42.6505 51.2347 42.9514 51.2859 43.5533L51.292 43.7086V48.5845C51.292 49.2362 50.9894 49.5869 50.3856 49.6367L50.2282 49.6427H45.197C44.5589 49.6427 44.2149 49.3418 44.1661 48.7411L44.16 48.5845V43.7086C44.16 43.0582 44.454 42.7075 45.0433 42.6577L45.197 42.6517L50.2294 42.6505ZM38.0906 32.4363C38.7458 32.4363 39.0983 32.7361 39.1484 33.3368L39.1545 33.4945V38.3692C39.1545 39.0196 38.8519 39.3703 38.248 39.4201L38.0906 39.4274H33.0338C32.4117 39.4274 32.0762 39.1264 32.0286 38.5257L32.0225 38.3692V33.4933C32.0225 32.8429 32.3092 32.4922 32.8838 32.4424L33.0338 32.4363H38.0906ZM50.2294 32.4363C50.8833 32.4363 51.2347 32.7361 51.2859 33.3368L51.292 33.4945V38.3692C51.292 39.0196 50.9894 39.3703 50.3856 39.4201L50.2282 39.4274H45.197C44.5589 39.4274 44.2149 39.1264 44.1661 38.5257L44.16 38.3692V33.4933C44.16 32.8429 44.454 32.4922 45.0433 32.4424L45.197 32.4363H50.2294Z" fill="white"/>
</svg>
