<svg width="102" height="102" viewBox="0 0 102 102" fill="none" xmlns="http://www.w3.org/2000/svg">
<circle cx="51" cy="51" r="51" fill="#F58220"/>
<path fill-rule="evenodd" clip-rule="evenodd" d="M39.6515 19C40.0254 19 43.4593 20.292 47.3012 21.8899C51.1431 23.5218 54.713 25.0178 55.2909 25.2898C55.8349 25.5278 56.5829 25.7998 56.9569 25.9358C57.2969 26.0378 57.5689 26.3438 57.5349 26.6497C57.5009 26.9897 57.1269 27.1597 56.2089 27.1597C55.5289 27.1597 54.101 26.8877 53.081 26.5137C52.061 26.1398 50.0551 25.3578 48.6612 24.7798C47.2672 24.2018 45.6353 23.5218 45.0913 23.2499C44.5133 23.0119 43.2213 22.4679 42.2014 22.0939C41.1814 21.6859 40.0595 21.3799 39.7195 21.3799C39.4135 21.3799 37.1695 22.1619 34.7896 23.1139C32.4097 24.0658 29.3498 25.2898 27.9899 25.8338C26.4259 26.4458 24.93 26.8197 23.842 26.8197C22.788 26.8197 22.1761 26.6837 22.2101 26.4457C22.278 26.2418 24.284 25.2558 26.7319 24.2358C29.1458 23.2159 31.4577 22.2299 31.8317 22.0599C32.2057 21.8899 33.9737 21.1079 35.7416 20.394C37.5095 19.646 39.2775 19.034 39.6515 19ZM39.8215 22.4339C40.0934 22.3999 43.1533 23.5558 46.6212 24.9838C50.0891 26.4118 53.115 27.7377 53.353 27.9757C53.693 28.2817 53.761 31.4096 53.591 58.9487H44.4113L44.3093 53.3388C44.2073 48.613 44.1053 47.627 43.6293 47.1171C43.1533 46.6411 42.4734 46.5051 39.9915 46.5051C37.5435 46.5051 36.8296 46.6071 36.4216 47.0831C36.0136 47.525 35.8776 48.953 35.5716 58.9487L30.7098 59.0167C25.9159 59.1186 25.8819 59.1186 25.8819 58.3367C25.8479 57.9287 25.8819 50.9929 25.8819 42.9692C25.8819 34.9115 26.0179 28.1797 26.1879 28.0097C26.3579 27.8057 28.3638 26.8877 30.6758 25.9358C32.9877 24.9498 35.8776 23.7938 37.1015 23.3179C38.3255 22.8079 39.5495 22.4339 39.8215 22.4339ZM55.5289 32.2596C55.7669 32.2596 57.6369 32.9395 59.7108 33.7895C61.7507 34.6735 63.8926 35.5574 64.4706 35.8294C65.0146 36.0674 66.6466 36.7814 68.0405 37.3934C69.4345 37.9714 71.5084 38.8893 72.6304 39.3993C73.7523 39.9093 76.3362 41.0313 78.4102 41.9152C80.4501 42.7652 82.388 43.6152 82.66 43.8192C83.102 44.0912 83.068 44.1592 82.49 44.3631C82.116 44.4991 81.1301 44.4991 80.2801 44.3971C79.4301 44.2951 73.6163 41.9832 67.1905 39.1953C60.8327 36.4754 55.3929 34.0275 55.1209 33.7555C54.8149 33.4835 54.713 33.1095 54.8489 32.7695C54.9849 32.4975 55.2909 32.2596 55.5289 32.2596ZM55.1889 35.3194C55.4269 35.3194 56.8549 35.8294 58.3508 36.4754C59.8468 37.0874 62.0907 38.0734 63.3487 38.6853C64.6066 39.2633 65.7286 39.7393 65.8306 39.7393C65.9326 39.7393 66.6466 40.0453 67.4285 40.3853C68.2445 40.7593 70.1144 41.5752 71.6104 42.2212C73.1063 42.8672 75.1463 43.7852 76.1322 44.2271C77.1182 44.6351 77.9682 45.2471 78.0362 45.5191C78.1042 45.7911 78.1382 48.919 78.0702 58.9487L66.8505 59.0167C58.3508 59.0846 55.5289 59.0167 55.1889 58.6767C54.8489 58.3707 54.747 55.7528 54.747 46.7771C54.7809 37.8354 54.8829 35.3194 55.1889 35.3194ZM39.9235 47.559C41.2834 47.559 42.5414 47.695 42.7794 47.831C43.1193 48.001 43.1873 49.429 43.0513 58.9487H36.9316L36.7616 53.7128C36.6596 49.701 36.7276 48.375 37.0676 48.035C37.3735 47.729 38.2915 47.559 39.9235 47.559ZM51.3811 60.1386C68.2105 60.1386 82.218 60.2066 82.49 60.3086C82.796 60.4106 83 60.8866 83 61.5666C83 62.1785 82.864 62.8925 82.728 63.0965C82.524 63.4365 75.7922 63.5045 20.6121 63.3685L20.5101 62.1785C20.4421 61.5326 20.4761 60.7846 20.5781 60.5466C20.7141 60.2406 27.2079 60.1386 51.3811 60.1386ZM45.7713 64.7285L46.1112 67.4484L59.3708 67.6184C68.5505 67.7204 72.8343 67.9244 73.3103 68.1963C73.6843 68.4003 74.3983 69.0123 74.9083 69.5563C75.3843 70.0663 75.9622 70.9162 76.1662 71.4262C76.3702 71.9702 76.5402 74.7921 76.5402 83.2578H73.4803V78.328C73.4803 75.2341 73.3103 73.1262 73.0723 72.6162C72.8683 72.2082 72.4604 71.6302 72.1544 71.3582C71.8144 71.0182 70.7604 70.8143 68.7545 70.7463C67.1225 70.6783 65.4906 70.7122 65.0486 70.8142C64.3006 71.0182 64.3006 71.0862 64.3006 83.2578H61.9207V77.376C61.9207 73.0922 61.8187 71.4262 61.4787 71.0862C61.1727 70.7803 59.2008 70.6783 53.659 70.6783C46.6212 70.6783 46.2472 70.7122 45.9412 71.3582C45.7373 71.7322 45.6013 72.6502 45.6013 73.3982C45.6013 74.4181 45.3633 75.0301 43.5953 76.968H34.5516V70.8482L39.3115 70.5083L39.4135 67.9583C39.4475 66.5644 39.5495 65.2044 39.6515 64.9664C39.7875 64.6605 40.6034 64.5585 45.7713 64.7285ZM32.3417 70.3383C32.9877 70.3383 33.0217 70.5423 32.9197 73.9761C32.8517 77.172 32.7837 77.648 32.2397 77.716C31.7297 77.818 31.6617 77.444 31.6617 74.0781C31.6617 70.5423 31.6957 70.3383 32.3417 70.3383ZM30.0298 71.7322C30.1658 71.6982 30.3698 71.9362 30.4718 72.2082C30.5738 72.4802 30.6418 73.5342 30.6418 74.4861C30.6418 76.0161 30.4718 76.4921 29.5878 77.478C29.0098 78.124 28.3978 79.314 28.2278 80.0959C27.9559 81.3539 27.7859 81.5579 27.0719 81.5579C26.2899 81.5579 26.2219 81.4559 26.4259 80.4359C26.5279 79.8579 26.8339 78.974 27.1059 78.498C27.3779 78.022 27.7859 77.376 27.9899 77.07C28.2278 76.764 28.2958 76.3561 28.1259 76.2201C27.9899 76.0841 27.4119 76.4921 26.8679 77.138C26.3239 77.784 25.6779 79.042 25.4399 79.9599C25.066 81.3879 24.93 81.5579 24.08 81.5579C23.57 81.5579 23.094 81.4559 22.992 81.2859C22.924 81.1499 23.264 80.1299 23.774 79.008C24.454 77.58 25.134 76.662 26.1539 75.9481C26.9359 75.3701 27.8539 74.7581 28.1939 74.5201C28.4998 74.3161 28.7038 74.0441 28.6018 73.9081C28.4998 73.7721 28.0579 73.7721 27.5819 73.8741C27.1059 73.9761 26.0519 74.6221 25.2359 75.3361C24.2387 76.1974 23.366 77.444 22.618 79.076C21.6321 81.1839 21.3261 81.5579 20.6801 81.4559C20.0341 81.3879 19.9321 81.2179 20.0341 80.0279C20.0681 79.28 20.3741 78.158 20.7141 77.512C21.0201 76.866 21.8361 75.7781 22.482 75.0981C23.128 74.4521 24.352 73.5682 25.202 73.1262C26.0519 72.7182 27.4119 72.2422 28.2618 72.0722C29.1118 71.9022 29.8938 71.7662 30.0298 71.7322Z" fill="white"/>
<path d="M37.1016 26.8537C37.3056 26.3098 37.8496 25.5958 38.3595 25.3238H38.3935C38.9035 25.0518 39.5155 24.8478 39.7535 24.8138C39.9575 24.8138 40.5015 24.9838 40.9435 25.2218C41.3514 25.4258 41.8614 25.8338 42.0994 26.1398C42.3374 26.4458 42.5074 27.2277 42.5074 27.8737C42.5414 28.6557 42.2694 29.3357 41.7594 29.8456C41.2608 30.3443 40.6148 30.605 39.8215 30.6276C39.0055 30.6276 38.3935 30.3556 37.9176 29.8456C37.5096 29.4037 37.1016 28.7917 36.9656 28.4857C36.8636 28.1457 36.8976 27.3977 37.1016 26.8537Z" fill="#F58220"/>
<path d="M30.7778 36.4754C30.8798 36.0334 31.4578 35.3875 32.0358 35.0135H32.0698C32.6477 34.6395 33.3957 34.3335 33.6677 34.3335C33.9397 34.3335 34.6877 34.6395 35.2997 35.0135C35.8776 35.3875 36.4556 36.0334 36.5576 36.4754C36.6596 36.8834 36.7276 38.4474 36.5576 42.6632H30.7778L30.6758 39.9433C30.6078 38.4474 30.6758 36.8834 30.7778 36.4754Z" fill="#F58220"/>
<path d="M42.6774 36.0674C42.9834 35.6254 43.5614 35.0475 43.9354 34.8095C44.3433 34.5715 44.9893 34.3335 45.3633 34.3335C45.7373 34.3335 46.5873 34.7755 47.2332 35.3195C48.3892 36.2714 48.4232 36.3394 48.5252 39.1273C48.5932 41.1333 48.4912 42.1192 48.1852 42.4252C47.9132 42.6972 46.8933 42.8672 45.4653 42.8332C44.1734 42.8332 42.9154 42.7652 42.6434 42.6632C42.2354 42.5272 42.1334 41.8812 42.1334 39.7053C42.1674 37.7334 42.3034 36.6454 42.6774 36.0674Z" fill="#F58220"/>
<path d="M60.0508 46.2331C60.3908 45.6891 60.9008 45.1791 61.1728 45.1111C61.4448 45.0091 61.8188 44.9411 62.0228 44.9071C62.2267 44.8731 62.7707 45.1451 63.2807 45.5531C64.1987 46.1991 64.2327 46.3691 64.0627 51.1629L62.1927 51.2649C61.0368 51.2989 60.1528 51.1629 59.8808 50.9249C59.6428 50.6869 59.4388 49.769 59.4728 48.885C59.4728 47.967 59.7448 46.8111 60.0508 46.2331Z" fill="#F58220"/>
<path d="M69.7405 45.8591C69.9785 45.5531 70.4205 45.2131 70.6925 45.1111C70.9645 45.0091 71.4064 44.9071 71.6104 44.9071C71.8484 44.8731 72.4264 45.2471 72.9024 45.7231C73.6504 46.4711 73.7524 46.8111 73.5824 51.1629L69.3325 51.3329V48.885C69.3325 47.389 69.5025 46.1651 69.7405 45.8591Z" fill="#F58220"/>
<path d="M38.1222 26.9897C38.3942 26.5477 38.9382 26.1398 39.3121 26.0718C39.6521 26.0378 40.2641 26.1738 40.6721 26.3778C41.0461 26.5817 41.4201 27.1257 41.4541 27.5677C41.5221 28.0097 41.3181 28.6557 41.0121 28.9957C40.7061 29.3016 40.0941 29.5736 39.6181 29.5736C39.1082 29.5736 38.5642 29.2337 38.2242 28.6897C37.6802 27.9077 37.6462 27.7717 38.1222 26.9897Z" fill="white"/>
<path d="M31.7304 39.0933C31.6284 36.8154 31.6964 36.4754 32.3764 35.9654C32.7844 35.6254 33.3623 35.3534 33.6683 35.3534C33.9743 35.3194 34.5523 35.5914 34.9943 35.9314C35.7083 36.4754 35.7763 36.7814 35.5723 41.6432H31.8324L31.7304 39.0933Z" fill="white"/>
<path d="M43.222 39.2293C43.086 36.8494 43.12 36.7474 44.038 36.0674C44.582 35.6594 45.194 35.3534 45.3979 35.3534C45.6019 35.3194 46.1459 35.6254 46.6219 35.9994C47.4039 36.6114 47.4719 36.8494 47.4039 38.9913C47.3359 40.2493 47.1999 41.4052 47.0639 41.5752C46.8939 41.7112 46.0439 41.7792 43.392 41.6432L43.222 39.2293Z" fill="white"/>
<path d="M60.6294 48.953C60.5614 48.307 60.6294 47.423 60.7314 46.9811C60.9014 46.3351 61.1394 46.1991 62.0234 46.3011C63.1113 46.4031 63.1113 46.4371 63.1113 50.1429V50.1429H61.9214C60.7994 50.1429 60.7314 50.0749 60.6294 48.953Z" fill="white"/>
<path d="M70.3531 48.511C70.3191 47.491 70.4551 46.5731 70.5911 46.4371C70.7611 46.3011 71.3051 46.2331 71.7811 46.3011C72.563 46.4031 72.631 46.5391 72.631 48.273C72.631 50.1429 72.631 50.1429 70.4211 50.3129L70.3531 48.511Z" fill="white"/>
</svg>
