<svg width="30" height="41" viewBox="0 0 26 27" fill="none" xmlns="http://www.w3.org/2000/svg">
<path d="M17.3521 3.08716H8.60958C6.90132 3.08917 5.26363 3.76873 4.05582 4.97675C2.848 6.18477 2.16871 7.82257 2.16699 9.53083L2.16699 18.2733C2.169 19.9816 2.84856 21.6193 4.05658 22.8271C5.2646 24.0349 6.90241 24.7142 8.61066 24.7159H17.3532C19.0614 24.7139 20.6991 24.0343 21.9069 22.8263C23.1147 21.6183 23.794 19.9805 23.7957 18.2722V9.52974C23.7937 7.82149 23.1142 6.1838 21.9062 4.97598C20.6981 3.76817 19.0603 3.08888 17.3521 3.08716V3.08716ZM21.6204 18.2722C21.6204 18.8328 21.51 19.3878 21.2955 19.9057C21.081 20.4235 20.7666 20.8941 20.3702 21.2904C19.9739 21.6868 19.5034 22.0012 18.9855 22.2157C18.4676 22.4302 17.9126 22.5406 17.3521 22.5406H8.60958C7.47773 22.5403 6.39234 22.0905 5.59211 21.29C4.79187 20.4896 4.34233 19.4041 4.34233 18.2722V9.52974C4.34261 8.3979 4.79244 7.31251 5.59287 6.51227C6.39331 5.71204 7.47881 5.26249 8.61066 5.26249H17.3532C18.485 5.26278 19.5704 5.7126 20.3706 6.51304C21.1709 7.31348 21.6204 8.39898 21.6204 9.53083V18.2733V18.2722Z" fill="#F5F5F5"/>
<path d="M12.9808 8.30762C11.4982 8.30991 10.077 8.89997 9.02873 9.94844C7.98046 10.9969 7.39068 12.4182 7.38867 13.9009C7.39039 15.3839 7.9802 16.8056 9.02873 17.8544C10.0773 18.9031 11.4989 19.4932 12.9819 19.4952C14.4651 19.4935 15.887 18.9035 16.9358 17.8548C17.9846 16.806 18.5745 15.384 18.5763 13.9009C18.574 12.4179 17.9836 10.9963 16.9347 9.94799C15.8857 8.89966 14.4638 8.31013 12.9808 8.3087V8.30762ZM12.9808 17.3199C12.0744 17.3199 11.205 16.9598 10.564 16.3188C9.92302 15.6778 9.56292 14.8084 9.56292 13.902C9.56292 12.9955 9.92302 12.1261 10.564 11.4851C11.205 10.8441 12.0744 10.484 12.9808 10.484C13.8873 10.484 14.7567 10.8441 15.3977 11.4851C16.0387 12.1261 16.3988 12.9955 16.3988 13.902C16.3988 14.8084 16.0387 15.6778 15.3977 16.3188C14.7567 16.9598 13.8873 17.3199 12.9808 17.3199Z" fill="#F5F5F5"/>
<path d="M18.5852 9.68993C19.3253 9.68993 19.9253 9.08996 19.9253 8.34985C19.9253 7.60974 19.3253 7.00977 18.5852 7.00977C17.8451 7.00977 17.2451 7.60974 17.2451 8.34985C17.2451 9.08996 17.8451 9.68993 18.5852 9.68993Z" fill="#F5F5F5"/>
</svg>
