<svg width="24" height="22" viewBox="0 0 20 18" fill="none" xmlns="http://www.w3.org/2000/svg">
<path d="M2 17.9204C1.45 17.9204 0.979333 17.7125 0.588 17.2967C0.196667 16.8809 0.000666667 16.3805 0 15.7954V3.04541C0 2.46104 0.196 1.96095 0.588 1.54516C0.98 1.12937 1.45067 0.921118 2 0.92041H18C18.55 0.92041 19.021 1.12866 19.413 1.54516C19.805 1.96166 20.0007 2.46174 20 3.04541V15.7954C20 16.3798 19.8043 16.8802 19.413 17.2967C19.0217 17.7132 18.5507 17.9211 18 17.9204H2ZM10 10.4829L18 5.17041V3.04541L10 8.35791L2 3.04541V5.17041L10 10.4829Z" fill="white"/>
</svg>
