<svg width="27" height="28" viewBox="0 0 23 24" fill="none" xmlns="http://www.w3.org/2000/svg">
<path d="M4.33217 16.7627C2.4589 17.3232 1.30078 18.0974 1.30078 18.9526C1.30078 20.6631 5.93429 22.0494 11.6504 22.0494C17.3664 22.0494 21.9999 20.6631 21.9999 18.9526C21.9999 18.0974 20.8413 17.3232 18.9685 16.7627" stroke="white" stroke-width="2" stroke-linecap="round" stroke-linejoin="round"/>
<path d="M11.6501 17.9204C11.6501 17.9204 18.3773 13.5354 18.3773 8.46596C18.3773 4.85099 15.3656 1.92041 11.6501 1.92041C7.93458 1.92041 4.92285 4.85099 4.92285 8.46596C4.92285 13.5354 11.6501 17.9204 11.6501 17.9204Z" stroke="white" stroke-width="2" stroke-linejoin="round"/>
<path d="M11.6499 11.2106C12.3361 11.2106 12.9942 10.9387 13.4795 10.4548C13.9647 9.97079 14.2373 9.31439 14.2373 8.62996C14.2373 7.94553 13.9647 7.28913 13.4795 6.80517C12.9942 6.32121 12.3361 6.04932 11.6499 6.04932C10.9637 6.04932 10.3056 6.32121 9.82033 6.80517C9.3351 7.28913 9.0625 7.94553 9.0625 8.62996C9.0625 9.31439 9.3351 9.97079 9.82033 10.4548C10.3056 10.9387 10.9637 11.2106 11.6499 11.2106Z" stroke="white" stroke-width="2" stroke-linejoin="round"/>
</svg>
