<svg width="25" height="25" viewBox="0 0 30 30" fill="none" xmlns="http://www.w3.org/2000/svg">
<g id="Icon" clip-path="url(#clip0_702_1897)">
<path id="Vector" d="M27.3684 24.7368V12.1052C27.0176 12.5 26.6393 12.8618 26.2336 13.1908C23.295 15.4495 20.9594 17.3026 19.227 18.75C18.6678 19.2215 18.2127 19.5888 17.8618 19.852C17.511 20.1151 17.0367 20.381 16.4392 20.6497C15.8416 20.9183 15.2796 21.0526 14.7533 21.0526H14.7368H14.7204C14.1941 21.0526 13.6321 20.9183 13.0345 20.6497C12.437 20.381 11.9627 20.1151 11.6118 19.852C11.261 19.5888 10.8059 19.2215 10.2467 18.75C8.51426 17.3026 6.17873 15.4495 3.24013 13.1908C2.83443 12.8618 2.45614 12.5 2.10526 12.1052V24.7368C2.10526 24.8794 2.15735 25.0027 2.26151 25.1069C2.36568 25.2111 2.48904 25.2631 2.63158 25.2631H26.8421C26.9847 25.2631 27.108 25.2111 27.2122 25.1069C27.3163 25.0027 27.3684 24.8794 27.3684 24.7368ZM27.3684 7.45064C27.3684 7.42871 27.3684 7.3684 27.3684 7.26972C27.3684 7.17103 27.3684 7.09702 27.3684 7.04768C27.3684 6.99834 27.3657 6.92706 27.3602 6.83386C27.3547 6.74066 27.3383 6.67213 27.3109 6.62827C27.2835 6.58441 27.2533 6.53507 27.2204 6.48025C27.1875 6.42542 27.1382 6.3843 27.0724 6.35689C27.0066 6.32948 26.9298 6.31577 26.8421 6.31577H2.63158C2.48904 6.31577 2.36568 6.36786 2.26151 6.47202C2.15735 6.57619 2.10526 6.69954 2.10526 6.84209C2.10526 8.68419 2.91119 10.2412 4.52303 11.5131C6.63926 13.1798 8.83772 14.9177 11.1184 16.727C11.1842 16.7818 11.3761 16.9435 11.6941 17.2122C12.0121 17.4808 12.2643 17.6864 12.4507 17.8289C12.6371 17.9715 12.881 18.1442 13.1826 18.347C13.4841 18.5499 13.761 18.7006 14.0132 18.7993C14.2654 18.898 14.5011 18.9474 14.7204 18.9474H14.7368H14.7533C14.9726 18.9474 15.2083 18.898 15.4605 18.7993C15.7127 18.7006 15.9896 18.5499 16.2911 18.347C16.5927 18.1442 16.8366 17.9715 17.023 17.8289C17.2094 17.6864 17.4616 17.4808 17.7796 17.2122C18.0976 16.9435 18.2895 16.7818 18.3553 16.727C20.636 14.9177 22.8344 13.1798 24.9507 11.5131C25.5428 11.0416 26.0938 10.4084 26.6036 9.61347C27.1135 8.81851 27.3684 8.09757 27.3684 7.45064ZM29.4737 6.84209V24.7368C29.4737 25.4605 29.216 26.08 28.7007 26.5954C28.1853 27.1107 27.5658 27.3684 26.8421 27.3684H2.63158C1.9079 27.3684 1.28838 27.1107 0.773027 26.5954C0.257676 26.08 0 25.4605 0 24.7368V6.84209C0 6.1184 0.257676 5.49888 0.773027 4.98353C1.28838 4.46818 1.9079 4.21051 2.63158 4.21051H26.8421C27.5658 4.21051 28.1853 4.46818 28.7007 4.98353C29.216 5.49888 29.4737 6.1184 29.4737 6.84209Z" fill="#0066FF"/>
</g>
<defs>
<clipPath id="clip0_702_1897">
<rect width="29.4737" height="29.4737" fill="white" transform="matrix(1 0 0 -1 0 29.4736)"/>
</clipPath>
</defs>
</svg>
