<svg width="17" height="30" viewBox="0 0 17 30" fill="none" xmlns="http://www.w3.org/2000/svg">
<g id="Icon" clip-path="url(#clip0_702_1894)">
<path id="Vector" d="M11.398 13.5033C11.398 13.5033 11.6036 13.2977 12.0148 12.8865C12.426 12.4753 12.6316 11.6886 12.6316 10.5263C12.6316 9.36402 12.2204 8.37169 11.398 7.54932C10.5757 6.72696 9.58334 6.31577 8.42106 6.31577C7.25877 6.31577 6.26645 6.72696 5.44408 7.54932C4.62171 8.37169 4.21053 9.36402 4.21053 10.5263C4.21053 11.6886 4.62171 12.6809 5.44408 13.5033C6.26645 14.3256 7.25877 14.7368 8.42106 14.7368C9.58334 14.7368 10.5757 14.3256 11.398 13.5033ZM16.8421 10.5263C16.8421 11.7215 16.6612 12.7028 16.2993 13.4704L10.3125 26.2006C10.1371 26.5625 9.87665 26.8476 9.53125 27.0559C9.18586 27.2642 8.81579 27.3684 8.42106 27.3684C8.02632 27.3684 7.65625 27.2642 7.31086 27.0559C6.96546 26.8476 6.71053 26.5625 6.54606 26.2006L0.542763 13.4704C0.180921 12.7028 0 11.7215 0 10.5263C0 8.20174 0.822369 6.21709 2.46711 4.57235C4.11184 2.92761 6.09649 2.10524 8.42106 2.10524C10.7456 2.10524 12.7303 2.92761 14.375 4.57235C16.0197 6.21709 16.8421 8.20174 16.8421 10.5263Z" fill="#0066FF"/>
</g>
<defs>
<clipPath id="clip0_702_1894">
<rect width="16.8421" height="29.4737" fill="white" transform="matrix(1 0 0 -1 0 29.4736)"/>
</clipPath>
</defs>
</svg>
