<svg width="182" height="75" viewBox="0 0 182 75" fill="none" xmlns="http://www.w3.org/2000/svg">
<g id="LOGO 01 1_layerstyle">
<g id="Group">
<path id="Vector" d="M68.0732 0.147227C69.1013 0.114696 70.6218 0.0713208 71.4552 0.0496333C72.2885 0.0279458 75.7679 0.00625827 79.1932 0.000836386C82.6131 -0.00458549 86.5741 0.017102 87.9865 0.0442114C89.3988 0.0767427 91.4605 0.120118 92.5589 0.152649C93.6574 0.179758 96.2386 0.277352 98.2948 0.369524C100.351 0.461696 102.429 0.532181 102.921 0.526759C103.641 0.521337 103.858 0.537603 104.031 0.613509C104.198 0.683993 104.545 0.711103 105.573 0.749056C106.303 0.776165 106.996 0.814118 107.115 0.830384C107.234 0.84665 107.721 0.884603 108.197 0.911712C108.674 0.944244 109.88 1.03099 110.876 1.10148C111.872 1.17738 113.003 1.25871 113.392 1.29124C113.782 1.32378 114.534 1.38342 115.07 1.42679C115.605 1.47017 116.309 1.53523 116.639 1.56234C116.969 1.59487 117.743 1.66535 118.37 1.73042C118.998 1.79006 119.68 1.86054 119.886 1.88765C120.091 1.90934 120.302 1.93103 120.346 1.93103C120.389 1.93645 120.973 2.00693 121.644 2.09368C122.315 2.18585 123.116 2.28345 123.43 2.31598C123.744 2.34851 124.106 2.37562 124.242 2.37562C124.377 2.37562 125.118 2.46237 125.892 2.56539C126.666 2.6684 128.186 2.87985 129.274 3.02625C130.362 3.17806 132.088 3.42204 133.116 3.56843C134.144 3.71482 135.378 3.89917 135.865 3.97508C136.347 4.05098 136.758 4.1052 136.779 4.09978C136.806 4.09978 136.861 4.1052 136.904 4.12689C136.947 4.14315 137.207 4.19737 137.472 4.24617C137.737 4.29497 138.273 4.39256 138.663 4.45762C139.052 4.52811 139.523 4.60401 139.718 4.6257C139.913 4.64197 140.178 4.66365 140.313 4.6745C140.448 4.67992 140.605 4.71245 140.665 4.74498C140.724 4.77751 141.016 4.84258 141.314 4.89137C141.612 4.93475 141.974 5.01065 142.126 5.05945C142.272 5.10283 142.569 5.15704 142.775 5.17331C142.981 5.18958 143.273 5.24379 143.424 5.28717C143.571 5.33597 143.868 5.37934 144.074 5.39019C144.279 5.39561 144.474 5.43356 144.507 5.46609C144.539 5.49862 144.62 5.52031 144.696 5.52031C144.772 5.52031 145.026 5.55826 145.264 5.60164C145.502 5.65044 146.098 5.76972 146.59 5.87816C147.082 5.98117 147.748 6.12756 148.078 6.20347C148.408 6.27937 148.976 6.4095 149.35 6.49625C149.723 6.58842 150.28 6.69686 150.594 6.74023C150.908 6.78903 151.395 6.88662 151.677 6.95711C151.958 7.02759 152.25 7.09808 152.326 7.11434C152.402 7.13061 152.596 7.17941 152.759 7.22278C152.921 7.27158 153.419 7.38544 153.868 7.47761C154.312 7.56978 154.961 7.71617 155.302 7.80292C155.643 7.88967 156.011 7.99811 156.114 8.03606C156.217 8.07944 156.547 8.17703 156.844 8.25294C157.142 8.32342 157.445 8.39933 157.521 8.4156C157.596 8.43186 157.986 8.52945 158.386 8.63247C158.787 8.73549 159.176 8.83308 159.252 8.84935C159.328 8.86561 159.701 8.96321 160.091 9.06622C160.481 9.16924 160.865 9.26683 160.957 9.2831C161.049 9.29936 161.276 9.359 161.471 9.41864C161.666 9.47828 162.153 9.61925 162.553 9.73853C162.954 9.85782 163.441 9.99878 163.635 10.0476C163.83 10.0964 164.009 10.1452 164.041 10.1506C164.069 10.1552 164.274 10.219 164.528 10.2981L164.663 10.3404C164.953 10.4255 165.419 10.5709 165.749 10.6738L165.827 10.6982C166.157 10.8012 166.774 10.9801 167.207 11.1048C167.64 11.2296 168.408 11.4627 168.911 11.6199C169.415 11.7772 170.183 12.0374 170.616 12.1892C171.049 12.341 171.519 12.5037 171.671 12.5471C171.817 12.5959 172.012 12.6609 172.104 12.7043C172.196 12.7423 172.412 12.8236 172.591 12.8886C172.769 12.9483 173.392 13.1706 173.971 13.382L174.093 13.4266C174.635 13.6245 175.185 13.8254 175.351 13.8808C175.529 13.9405 175.713 14.0001 175.756 14.011C175.8 14.0164 176.13 14.1248 176.487 14.2495C176.844 14.3688 177.185 14.4935 177.245 14.5206C177.304 14.5477 177.526 14.6345 177.732 14.7158C177.937 14.7917 178.246 14.9164 178.408 14.9923C178.57 15.0682 178.917 15.2146 179.176 15.3122C179.441 15.4152 179.69 15.4966 179.734 15.4966C179.788 15.4966 179.853 15.6285 179.929 15.8924C179.993 16.1038 180.113 16.5213 180.199 16.8141C180.313 17.1882 180.34 17.3617 180.302 17.4213C180.253 17.4918 180.221 17.4918 179.993 17.4213C179.847 17.3725 179.16 17.1611 178.462 16.9551C177.764 16.7436 176.801 16.4562 176.325 16.3099C175.848 16.1689 174.885 15.8815 174.187 15.6701C173.489 15.4586 172.602 15.1875 172.212 15.0628C171.823 14.9381 171.195 14.7592 170.805 14.6562C170.416 14.5586 169.81 14.4014 169.452 14.3038C169.095 14.2116 168.549 14.0652 168.235 13.9784C167.921 13.8917 167.288 13.7236 166.828 13.6043C166.368 13.4851 165.93 13.3766 165.854 13.3603C165.778 13.3441 165.486 13.2736 165.205 13.1977C164.923 13.1272 164.496 13.0405 164.258 13.0025C164.02 12.9646 163.679 12.8941 163.5 12.8344C163.321 12.7802 162.986 12.688 162.759 12.623C162.526 12.5633 160.881 12.2218 159.106 11.8693C157.326 11.5115 155.648 11.1916 155.383 11.1591C155.118 11.1211 154.691 11.0235 154.436 10.9422C154.074 10.8229 153.83 10.7795 153.3 10.7524C152.927 10.7362 152.44 10.6874 152.218 10.644C151.996 10.606 151.666 10.5301 151.487 10.4868C151.309 10.438 150.794 10.3404 150.351 10.2645C149.902 10.1885 149.16 10.0801 148.7 10.0205C148.24 9.95541 147.218 9.79817 146.428 9.66805C145.638 9.5325 144.398 9.35358 143.668 9.26141C142.937 9.16924 142.245 9.08791 142.126 9.07164C142.007 9.0608 140.946 8.92525 139.772 8.77344C138.598 8.62163 137.331 8.46439 136.958 8.42102C136.585 8.38306 136.076 8.32342 135.822 8.29089C135.567 8.25836 135.048 8.20956 134.658 8.17703C134.269 8.14992 132.959 8.02522 131.736 7.90594C130.513 7.78666 128.3 7.59147 126.812 7.47219C125.324 7.35291 123.765 7.2282 123.349 7.20109C122.932 7.16856 122.093 7.11977 121.482 7.08723C120.87 7.0547 120.248 7.01675 120.102 7.00591C119.951 6.99506 119.723 6.97337 119.588 6.95711C119.453 6.94627 118.809 6.90831 118.154 6.87578C117.499 6.84325 116.33 6.78903 115.557 6.76192C114.783 6.73481 114.101 6.71312 114.041 6.71312C113.982 6.71312 113.533 6.69144 113.04 6.65891C112.548 6.6318 111.439 6.583 110.578 6.55047C109.718 6.51794 107.813 6.47456 106.358 6.45287C104.897 6.43661 101.087 6.42034 97.889 6.42034C94.691 6.42577 90.8057 6.45287 89.2581 6.49083C87.8479 6.52047 85.921 6.56812 84.7589 6.59686L84.4421 6.60469C83.3436 6.63722 81.4659 6.69686 80.2755 6.74023C79.085 6.78903 77.4887 6.85952 76.7311 6.90289C75.9735 6.95169 75.3026 7.00048 75.243 7.01675C75.1835 7.03302 74.4909 7.06555 73.7008 7.09266C72.9108 7.11977 71.8286 7.17941 71.2928 7.22278C70.7571 7.26616 68.9768 7.39086 67.3426 7.4993C65.7085 7.60231 63.966 7.72702 63.4736 7.77039C62.9812 7.81377 61.7258 7.92763 60.6868 8.01438C59.6425 8.10113 58.5386 8.19872 58.2247 8.23125C57.9109 8.26378 57.2399 8.32342 56.7367 8.3668C56.2334 8.4156 54.7074 8.56199 53.3546 8.69211C52.0018 8.82766 50.3081 9.00116 49.5938 9.07706C48.8796 9.15297 47.3103 9.32105 46.1036 9.4566C44.8969 9.59214 43.2086 9.78191 42.3428 9.89035C41.477 9.99336 39.6047 10.2211 38.1762 10.4C36.7476 10.5843 34.9457 10.8121 34.1719 10.9205C33.3981 11.0235 32.6188 11.132 32.4403 11.1645C32.2617 11.1916 32.0777 11.2187 32.0344 11.2187C31.9911 11.2241 31.7963 11.2458 31.6015 11.2783C31.4067 11.3055 31.1524 11.338 31.0334 11.3543C30.9143 11.3651 30.3786 11.4356 29.8429 11.5061C29.3072 11.582 28.528 11.6958 28.1113 11.7555C27.7058 11.8188 27.2798 11.877 27.1475 11.895L27.1373 11.8964C27.0182 11.9127 26.1308 12.0483 25.1622 12.1946C24.1936 12.3465 23.2195 12.5037 22.9977 12.5471C22.7758 12.585 22.5161 12.6284 22.4295 12.6447C22.3429 12.6555 22.159 12.6772 22.0237 12.6989C21.8884 12.7151 21.3797 12.8073 20.8873 12.8941C20.3949 12.9808 19.9079 13.0676 19.8051 13.0784C19.7023 13.0947 19.5183 13.1218 19.3992 13.1381C19.2802 13.1543 18.7715 13.2411 18.2629 13.3224C17.7542 13.4091 17.3051 13.4796 17.2618 13.4851C17.2185 13.4851 16.9263 13.5393 16.6124 13.5989C16.2986 13.6586 14.962 13.8917 13.6363 14.114C12.3105 14.3363 10.9469 14.5586 10.5952 14.6128C10.2489 14.667 9.97829 14.7267 9.98911 14.7538C9.99994 14.7755 9.97829 14.7809 9.94041 14.7646C9.90795 14.7484 9.56163 14.7863 9.17202 14.8459C8.78241 14.911 8.11683 15.0303 7.68393 15.117C7.25104 15.2038 6.32572 15.3827 5.62767 15.5183C4.92962 15.6538 3.63634 15.8978 2.75972 16.0659C1.8831 16.2339 1.02813 16.402 0.865795 16.4454C0.703459 16.4834 0.438309 16.5322 0.281383 16.5484C0.0378785 16.5755 0 16.5701 0 16.4888C0.00541122 16.4346 0.119047 16.3207 0.259739 16.2285C0.40043 16.1418 1.09307 15.6918 1.79653 15.2255C2.49998 14.7646 3.36578 14.2007 3.71751 13.9676C4.06924 13.7399 4.70776 13.3278 5.14066 13.0567C5.57356 12.7802 6.12009 12.4332 6.35818 12.2814C6.59628 12.1296 6.88848 11.9452 7.00753 11.8693C7.12658 11.7934 7.24563 11.7121 7.27809 11.685C7.31056 11.6633 7.4242 11.5874 7.53242 11.5115C7.64606 11.4356 7.75428 11.3759 7.77592 11.3759C7.80298 11.3759 7.88956 11.3163 7.98155 11.2512C8.07354 11.1808 8.47397 10.9205 8.8744 10.6711C9.27483 10.4217 9.72396 10.1343 9.87548 10.0367C10.0216 9.93914 10.2056 9.81444 10.2813 9.76564C10.3517 9.71142 10.4491 9.65178 10.4978 9.63552C10.5411 9.61383 11.2229 9.19092 12.0129 8.69211C12.8029 8.1933 13.896 7.4993 14.448 7.15772C14.9999 6.81072 15.4599 6.51252 15.4761 6.49083C15.4923 6.47456 15.5627 6.42577 15.6384 6.38781C15.7142 6.34986 15.9685 6.19262 16.2066 6.03539C16.4447 5.88358 17.0778 5.47694 17.6135 5.14078C18.1492 4.80462 18.7553 4.41425 18.9663 4.2787C19.2856 4.07267 19.4046 4.02929 19.7239 3.99134C19.9349 3.96965 20.8548 3.86122 21.7802 3.7582C22.7055 3.64976 23.7769 3.52506 24.1611 3.48711C24.5453 3.44373 25.3895 3.34614 26.028 3.27023C26.6064 3.20638 27.9798 3.04908 29.2188 2.90717L29.5994 2.86359C30.9251 2.7172 33.6253 2.4461 35.6058 2.26718C37.5863 2.08826 39.7887 1.87681 40.503 1.80632C41.2173 1.73042 42.2995 1.62198 42.911 1.56234C43.5224 1.5027 44.8482 1.39426 45.8601 1.31835C46.872 1.24787 48.5387 1.13401 49.5668 1.07437C50.5949 1.01473 51.8611 0.944244 52.3806 0.911712C52.9001 0.879181 54.1771 0.808697 55.2215 0.749056C56.2605 0.689415 57.2345 0.629775 57.386 0.613509C57.5321 0.597243 58.6306 0.537603 59.821 0.477962C61.0115 0.418321 62.9325 0.336993 64.0959 0.288196C65.2593 0.244821 67.045 0.179758 68.0732 0.147227Z" fill="white"/>
<path id="Vector_2" d="M1.94836 58.4107C1.8239 57.9933 1.71567 57.6083 1.69944 57.5595C1.6778 57.489 1.69944 57.4619 1.76979 57.4619C1.8239 57.4673 3.80441 58.0529 6.16911 58.7686C8.53381 59.4843 10.7849 60.1566 11.1745 60.2542C11.5587 60.3572 11.997 60.4765 12.1485 60.5199C12.2946 60.5578 13.4039 60.8506 14.6106 61.1705C15.8173 61.4849 17.1431 61.8048 17.5597 61.8807C17.9764 61.9621 18.5013 62.0814 18.7231 62.1518C18.945 62.2223 19.4212 62.347 19.7783 62.4229C20.1355 62.5043 21.6452 62.8133 23.1333 63.1061C24.6214 63.4043 26.1419 63.6917 26.5153 63.7513C26.8887 63.8109 27.3757 63.9194 27.5975 64.0007C27.8627 64.0983 28.1062 64.1471 28.301 64.1417C28.4633 64.1417 28.9016 64.1742 29.275 64.2176C29.6484 64.261 30.1949 64.3531 30.4925 64.429C30.7902 64.5049 31.4125 64.6242 31.8724 64.7001C32.3324 64.7706 33.0142 64.8682 33.3876 64.917C33.7609 64.9658 34.7836 65.123 35.6603 65.2694C36.5369 65.4158 37.6678 65.5839 38.1765 65.6435C38.6851 65.7032 40.157 65.8875 41.4503 66.0502C42.7436 66.2183 44.1342 66.3918 44.5347 66.4351L44.6692 66.4515C45.0573 66.4987 45.5531 66.5591 45.8334 66.5978C46.1472 66.6412 46.7641 66.7062 47.2132 66.7333C47.6569 66.7659 48.0952 66.8038 48.1872 66.8147C48.2738 66.8309 49.5076 66.9502 50.9199 67.0858C52.3322 67.2159 54.4534 67.4002 55.6277 67.4924L55.963 67.5187C57.0635 67.6052 58.2954 67.702 58.8203 67.7364C59.3993 67.7798 60.1893 67.8177 60.5789 67.8177C60.9685 67.8177 61.3798 67.8448 61.4988 67.8719C61.6179 67.899 62.1049 67.9478 62.5811 67.9749C63.0573 68.0075 63.9447 68.0563 64.5562 68.0888C65.1676 68.1213 66.1146 68.1593 66.6666 68.1756C67.2185 68.1918 67.8624 68.2135 68.1005 68.2243C68.3386 68.2298 69.0204 68.2623 69.6157 68.3003C70.2109 68.3328 71.5745 68.387 72.646 68.4195C73.7174 68.4521 75.1892 68.4683 75.9197 68.4629C76.6503 68.4521 78.2087 68.4738 79.3829 68.5117C81.0279 68.5659 82.6513 68.5659 86.4446 68.5226C89.1502 68.4954 92.4618 68.4412 93.8038 68.4141C95.1404 68.387 97.1263 68.3382 98.214 68.3057C99.3016 68.2731 101.125 68.2135 102.272 68.1701C103.42 68.1213 104.929 68.0508 105.627 68.002C106.325 67.9533 106.926 67.9045 106.953 67.8882C106.986 67.8719 107.494 67.8502 108.089 67.8394C108.685 67.8285 110 67.7581 111.012 67.6822C112.023 67.6117 113.815 67.487 114.989 67.4111C116.163 67.3352 117.575 67.2376 118.127 67.1942C118.679 67.1454 120.102 67.0261 121.293 66.9177C122.483 66.8147 124.247 66.6574 125.216 66.5653C126.185 66.4785 127.949 66.3104 129.139 66.1911C130.33 66.0719 131.78 65.9255 132.359 65.8658C132.938 65.8008 134.507 65.6327 135.849 65.4809C137.186 65.3345 138.674 65.1664 139.15 65.1068C139.59 65.0516 140.391 64.9547 141.006 64.8804L141.152 64.8628C141.78 64.7869 142.483 64.7001 142.721 64.673C142.959 64.6405 144.107 64.4941 145.265 64.3477C146.423 64.1959 147.921 64.0007 148.592 63.9085C149.263 63.8218 150.519 63.6483 151.379 63.529L151.585 63.5005C152.435 63.3826 153.588 63.2229 154.247 63.1278C154.961 63.0248 156.103 62.8567 156.79 62.7482C157.478 62.6398 158.776 62.4338 159.685 62.2874C160.595 62.1356 162.407 61.8319 163.717 61.6097C165.026 61.3874 167.499 60.9699 169.209 60.6879C170.919 60.406 172.867 60.0753 173.538 59.956C174.209 59.8367 175.643 59.571 176.731 59.3596C177.818 59.1481 179.388 58.8445 180.221 58.6764C181.054 58.5138 181.823 58.3836 181.926 58.3945C182.104 58.4107 182.045 58.4595 180.816 59.2674L180.732 59.3231C180.025 59.7899 179.081 60.4134 178.587 60.7313C178.073 61.0675 177.515 61.4253 177.342 61.5337C177.169 61.6422 176.677 61.9567 176.244 62.2332C175.811 62.5097 175.4 62.7754 175.324 62.8296L175.277 62.8601C175.112 62.9666 174.605 63.2942 174.052 63.6429C173.425 64.0387 172.028 64.9278 170.941 65.611C169.853 66.2996 168.576 67.102 168.1 67.4002C167.696 67.6532 167.214 67.9609 166.932 68.141L166.801 68.2243C166.563 68.3816 165.757 68.8912 165.016 69.3629C164.269 69.8346 163.468 70.3443 163.23 70.4961C162.992 70.6533 162.775 70.7943 162.743 70.816C162.71 70.8323 162.272 70.8973 161.769 70.957C161.266 71.0166 160.519 71.1034 160.118 71.1467C159.718 71.1955 158.646 71.3148 157.737 71.4178C156.828 71.5263 155.443 71.6835 154.653 71.7757C153.863 71.8679 152.683 71.998 152.029 72.0739C151.374 72.1444 150.486 72.242 150.053 72.2853C149.621 72.3341 148.576 72.4317 147.727 72.5076C146.877 72.5835 145.384 72.7191 144.399 72.8113C143.414 72.898 142.272 73.0064 141.855 73.0498C141.439 73.0986 140.503 73.1908 139.772 73.2667C139.042 73.3426 137.656 73.4619 136.688 73.5324C135.719 73.6083 134.318 73.7059 133.576 73.7492C132.83 73.798 131.114 73.8956 129.761 73.9715C128.475 74.0437 126.538 74.16 125.341 74.2319L125.162 74.2426C123.988 74.3185 122.245 74.4161 121.293 74.4595C120.34 74.5029 118.609 74.5734 117.451 74.6222C116.293 74.6655 114.453 74.7252 113.365 74.7577C112.278 74.7902 110.725 74.839 109.913 74.8662C109.107 74.8987 105.779 74.9204 102.532 74.9204C99.28 74.9204 95.6328 74.8987 94.4261 74.8662C93.2194 74.8336 90.9792 74.774 89.4478 74.7306C87.9164 74.6872 84.9565 74.5788 82.8732 74.4866C80.6654 74.389 78.9176 74.3348 78.6795 74.3565C78.3494 74.389 78.2357 74.3782 78.0572 74.2969C77.884 74.2209 77.6135 74.1884 76.6773 74.1505C76.0388 74.1288 74.3343 74.0203 72.8895 73.9173C71.4447 73.8143 69.6319 73.6788 68.8581 73.6191C68.0843 73.5595 66.7585 73.4456 65.909 73.3697C65.0594 73.2992 63.8906 73.1854 63.3116 73.1311C62.7326 73.0715 61.7099 72.9468 61.0389 72.8601C60.3679 72.7733 59.5508 72.6757 59.2261 72.6432C58.9015 72.6106 58.3387 72.5619 57.9815 72.5347C57.6244 72.5131 55.9686 72.307 54.3019 72.0793C52.6353 71.8516 50.4167 71.5425 49.3777 71.3907C48.3333 71.2443 47.0238 71.0491 46.4557 70.9624C45.8875 70.8756 44.8323 70.6967 44.1018 70.5612C43.3713 70.4256 42.5055 70.2901 42.1808 70.2576C41.8561 70.225 41.4773 70.1654 41.342 70.122C41.2068 70.0841 40.9524 70.0298 40.7739 70.0136C40.5953 69.9919 40.2814 69.9268 40.0704 69.8672C39.8594 69.8075 39.4589 69.7262 39.1776 69.6828C38.8962 69.6449 38.5553 69.5852 38.42 69.5581C38.2847 69.5256 38.052 69.5039 37.9059 69.4985C37.7544 69.4985 37.5867 69.4605 37.5271 69.4172C37.4676 69.3684 37.3323 69.3358 37.2295 69.3358C37.1267 69.3358 36.7966 69.287 36.499 69.2328C36.2014 69.1732 35.3464 68.9943 34.6051 68.8262C33.8583 68.6635 32.9979 68.4683 32.6841 68.3924C32.3702 68.3219 31.7967 68.2081 31.4125 68.143C31.0283 68.078 30.2815 67.9207 29.762 67.7852C29.2426 67.655 28.3551 67.449 27.7869 67.3243C27.2188 67.1996 26.4774 67.0153 26.1365 66.9123C25.7956 66.8092 24.6484 66.5056 23.5932 66.2345C22.5381 65.9688 21.4883 65.7032 21.2664 65.6544C21.0446 65.6002 20.4331 65.4267 19.9136 65.2694C19.3941 65.1122 18.7123 64.917 18.3985 64.8357C18.0846 64.7543 17.1214 64.4778 16.261 64.2176C15.4007 63.9573 14.524 63.6971 14.313 63.6374C14.102 63.5724 13.458 63.3718 12.879 63.182C12.3 62.9977 11.0825 62.5802 10.1734 62.2603C9.26433 61.9404 8.31736 61.5988 8.06304 61.5012C7.80871 61.3982 7.04032 61.1325 6.3585 60.8994C5.67128 60.6717 4.78384 60.3518 4.38341 60.1945C3.98298 60.0373 3.38774 59.7987 3.05766 59.6632C2.72757 59.5277 2.41913 59.4138 2.36502 59.4138C2.31632 59.4138 2.24597 59.3596 2.21892 59.2945C2.18645 59.224 2.0674 58.8282 1.94836 58.4107Z" fill="white"/>
<g id="Vector_3">
<path d="M65.6109 68.1268C65.4919 68.1376 65.3241 68.1376 65.2321 68.1268C65.1402 68.1159 65.243 68.1051 65.4486 68.1051C65.6542 68.1051 65.73 68.1159 65.6109 68.1268Z" fill="white"/>
<path d="M67.1261 68.181C67.007 68.1919 66.8393 68.1919 66.7473 68.181C66.6553 68.1702 66.7581 68.1593 66.9637 68.1593C67.1694 68.1593 67.2451 68.1702 67.1261 68.181Z" fill="white"/>
<path d="M98.9441 68.2894C98.825 68.3003 98.6573 68.3003 98.5653 68.2894C98.4733 68.2786 98.5761 68.2678 98.7817 68.2678C98.9873 68.2678 99.0631 68.2786 98.9441 68.2894Z" fill="white"/>
<path d="M97.0501 68.3437C96.9311 68.3545 96.7633 68.3545 96.6713 68.3437C96.5793 68.3328 96.6822 68.322 96.8878 68.322C97.0934 68.322 97.1692 68.3328 97.0501 68.3437Z" fill="white"/>
<path d="M94.8586 68.3979C94.7558 68.4087 94.561 68.4087 94.4257 68.3979C94.2904 68.387 94.377 68.3762 94.6151 68.3762C94.8532 68.3762 94.9614 68.387 94.8586 68.3979Z" fill="white"/>
<path d="M74.5665 68.4521C74.3717 68.4629 74.0687 68.4629 73.8901 68.4521C73.7115 68.4413 73.8685 68.4358 74.2418 68.4358C74.6152 68.4358 74.7613 68.4413 74.5665 68.4521Z" fill="white"/>
<path d="M92.153 68.4521C91.9906 68.4629 91.7363 68.4629 91.5848 68.4521C91.4333 68.4413 91.5686 68.4358 91.8824 68.4358C92.1963 68.4358 92.3153 68.4413 92.153 68.4521Z" fill="white"/>
<path d="M88.8521 68.5063C88.6573 68.5172 88.3543 68.5172 88.1757 68.5063C87.9972 68.4955 88.1541 68.4901 88.5275 68.4901C88.9008 68.4901 89.0469 68.4955 88.8521 68.5063Z" fill="white"/>
<path d="M83.1162 68.5605C82.6238 68.5714 81.8338 68.5714 81.3576 68.5605C80.8814 68.5551 81.2818 68.5443 82.2504 68.5443C83.219 68.5443 83.6087 68.5551 83.1162 68.5605Z" fill="white"/>
<path d="M79.4637 74.362C79.3176 74.3728 79.0849 74.3728 78.9496 74.362C78.8143 74.3511 78.9388 74.3457 79.2202 74.3457C79.5015 74.3457 79.6152 74.3511 79.4637 74.362Z" fill="white"/>
<path d="M88.9604 74.7415C88.798 74.7523 88.5437 74.7523 88.3922 74.7415C88.2407 74.7306 88.3759 74.7252 88.6898 74.7252C89.0036 74.7252 89.1227 74.7306 88.9604 74.7415Z" fill="white"/>
<path d="M114.799 74.7415C114.68 74.7523 114.512 74.7523 114.42 74.7415C114.328 74.7306 114.431 74.7198 114.637 74.7198C114.842 74.7198 114.918 74.7306 114.799 74.7415Z" fill="white"/>
<path d="M90.9896 74.7957C90.8705 74.8065 90.7028 74.8065 90.6108 74.7957C90.5188 74.7849 90.6216 74.774 90.8272 74.774C91.0328 74.774 91.1086 74.7849 90.9896 74.7957Z" fill="white"/>
<path d="M113.067 74.7957C112.948 74.8065 112.781 74.8065 112.689 74.7957C112.597 74.7849 112.699 74.774 112.905 74.774C113.111 74.774 113.186 74.7849 113.067 74.7957Z" fill="white"/>
<path d="M93.3976 74.8499C93.2027 74.8608 92.8997 74.8608 92.7211 74.8499C92.5426 74.8391 92.6995 74.8337 93.0729 74.8337C93.4463 74.8337 93.5924 74.8391 93.3976 74.8499Z" fill="white"/>
</g>
<path id="Vector_4" d="M39.826 53.9865C40.0803 53.9052 40.4916 53.7968 40.7459 53.7534C41.1409 53.6883 48.4352 53.6775 147.266 53.6666L147.228 54.1654C147.206 54.442 147.152 54.854 147.103 55.0763C147.055 55.2986 146.947 55.7053 146.855 55.9709C146.763 56.242 146.584 56.6541 146.46 56.8926C146.33 57.1312 146.146 57.4511 146.048 57.5975C145.945 57.7493 145.767 57.9933 145.642 58.1397C145.518 58.2915 145.307 58.5192 145.177 58.6493C145.047 58.7795 144.814 58.9909 144.668 59.1156C144.517 59.2403 144.252 59.4409 144.073 59.5602C143.895 59.6795 143.624 59.8421 143.478 59.9181C143.326 59.994 143.121 60.0916 143.018 60.1349C142.915 60.1783 142.764 60.2379 142.677 60.2759C142.596 60.3084 142.293 60.3952 142.001 60.4711C141.714 60.5416 141.27 60.6283 141.016 60.6609C140.702 60.6988 123.754 60.7151 87.7586 60.7151C45.5565 60.7151 34.9559 60.6988 34.9505 60.65C34.9451 60.6121 34.9505 60.4819 34.9559 60.3626C34.9559 60.2434 34.9938 59.9126 35.0371 59.6307C35.0804 59.3488 35.1778 58.9096 35.2535 58.6548C35.3347 58.3999 35.4862 57.9987 35.589 57.7601C35.6972 57.5216 35.9407 57.0824 36.141 56.7842C36.3358 56.486 36.6929 56.0468 36.931 55.8028C37.1691 55.5589 37.5208 55.239 37.7156 55.0872C37.9104 54.9353 38.1756 54.751 38.3109 54.6751C38.4461 54.5992 38.7383 54.4474 38.9602 54.3389C39.1821 54.2305 39.5717 54.0733 39.826 53.9865Z" fill="white"/>
<path id="Vector_5" fill-rule="evenodd" clip-rule="evenodd" d="M54.5178 11.2729C55.4377 11.2729 56.7905 11.2946 57.521 11.3217C58.2515 11.3543 59.2634 11.4139 59.7666 11.4573C60.2699 11.5061 60.8922 11.5657 61.1465 11.5983C61.4008 11.6254 61.8391 11.6904 62.1205 11.7338C62.4019 11.7772 62.9755 11.8856 63.3922 11.9724C63.8088 12.0591 64.4636 12.2272 64.8532 12.3411C65.2428 12.4603 65.811 12.6555 66.1248 12.7802C66.4387 12.9104 66.8986 13.1218 67.153 13.2628C67.4073 13.3983 67.7969 13.6315 68.0188 13.7833C68.2406 13.9351 68.5328 14.1411 68.6681 14.2441C68.8034 14.3417 69.0848 14.5695 69.2904 14.7375C69.496 14.911 69.9127 15.3014 70.2103 15.6105C70.5079 15.9195 70.838 16.2936 70.9408 16.4346C71.0436 16.581 71.1843 16.7599 71.2438 16.8412C71.3088 16.9225 71.4928 17.2208 71.6551 17.5027C71.8174 17.7846 71.969 18.0774 71.996 18.1533C72.0177 18.2292 72.0555 18.316 72.0772 18.3431C72.1042 18.3702 72.2233 18.6955 72.3423 19.0588C72.4668 19.4275 72.6129 20.013 72.6724 20.36C72.7319 20.7124 72.7969 21.2817 72.8185 21.6233C72.8347 21.9703 72.8239 22.4908 72.786 22.7999C72.7536 23.1089 72.6886 23.5481 72.6399 23.7758C72.5967 24.0089 72.456 24.4915 72.3369 24.8493C72.2179 25.2072 72.1042 25.5271 72.0772 25.5542C72.0555 25.5813 72.0177 25.668 71.996 25.7439C71.969 25.8199 71.72 26.2807 71.4386 26.7741C71.1573 27.2675 70.7785 27.8856 70.5999 28.1567C70.4213 28.4278 70.2211 28.7151 70.1616 28.8073C70.0967 28.8941 70.0209 28.9917 69.9939 29.0296C69.9668 29.0621 69.8586 29.1977 69.7558 29.3278C69.6529 29.4579 69.3607 29.7724 69.101 30.0272C68.8467 30.2821 68.4354 30.6453 68.1919 30.8405C67.9484 31.0357 67.5209 31.3339 67.245 31.502C66.969 31.6701 66.7092 31.811 66.666 31.8165C66.6227 31.8165 66.5469 31.8544 66.5036 31.8924C66.4603 31.9357 66.2385 32.0442 66.0166 32.1363C65.7947 32.2231 65.3943 32.3641 65.1238 32.44C64.8532 32.5159 64.6097 32.5864 64.5826 32.5972C64.5556 32.6026 64.8315 32.6026 65.2049 32.5864C65.5783 32.5755 66.3142 32.5918 66.8445 32.6243C67.3694 32.6568 68.062 32.7273 68.3813 32.7761C68.706 32.8249 69.0307 32.8683 69.1172 32.8683C69.1984 32.8737 69.2633 32.89 69.2633 32.9117C69.2633 32.9388 69.3066 32.9551 69.3607 32.9551C69.4094 32.9551 69.7558 33.0418 70.1291 33.1502C70.5025 33.2587 71.0599 33.4593 71.3737 33.5948C71.6876 33.725 72.1475 33.9581 72.4018 34.1099C72.6562 34.2617 73.0458 34.522 73.2676 34.6846C73.4895 34.8473 73.8791 35.1943 74.1334 35.4491C74.3878 35.7039 74.6475 35.9805 74.7178 36.0618C74.7828 36.1431 75.0209 36.4793 75.2427 36.8046C75.4646 37.1299 75.7081 37.5149 75.7784 37.6558C75.8488 37.8022 75.9841 38.1113 76.0815 38.3498C76.1789 38.5884 76.26 38.8215 76.2709 38.8649C76.2817 38.9083 76.325 39.1035 76.3737 39.2987C76.417 39.4938 76.4873 39.933 76.5198 40.2746C76.5739 40.7571 76.5739 41.0716 76.5252 41.6572C76.4873 42.0747 76.4007 42.6711 76.3304 42.9855C76.26 43.3 76.1248 43.7717 76.0328 44.0428C75.9462 44.3139 75.7514 44.7856 75.6053 45.1001C75.4592 45.4145 75.194 45.8754 75.0263 46.1302C74.8531 46.3851 74.5555 46.77 74.3553 46.9923C74.1605 47.2146 73.8034 47.5562 73.5653 47.7568C73.3272 47.9574 72.9267 48.2556 72.6724 48.4183C72.4181 48.5863 71.9581 48.8574 71.6443 49.0201C71.3304 49.1827 70.7352 49.4538 70.3185 49.6165C69.9019 49.7791 69.3445 49.9743 69.0739 50.0502C68.8034 50.1316 68.3543 50.2454 68.0729 50.3051C67.7915 50.3701 67.2179 50.4786 66.8012 50.5491C66.3846 50.6195 65.7731 50.7171 65.4484 50.7605C65.1238 50.8093 64.4149 50.8961 63.8792 50.9557C63.3435 51.0153 62.3316 51.1184 61.6335 51.1834C60.443 51.2919 60.0047 51.3027 49.5124 51.3352V37.3034C49.5124 25.5596 49.4961 22.8595 49.4258 20.7287C49.3663 19.0371 49.35 17.4918 49.3663 16.1201C49.3825 14.9869 49.4258 13.8538 49.4583 13.5989C49.4907 13.3441 49.5503 13.0134 49.5881 12.867C49.6314 12.7152 49.7451 12.4875 49.8479 12.3573C49.9453 12.2272 50.1509 12.032 50.297 11.9344C50.4485 11.8314 50.7029 11.7013 50.8652 11.6416C51.0275 11.5766 51.3306 11.4898 51.5416 11.4464C51.7472 11.4031 52.126 11.3489 52.3803 11.3272C52.6347 11.3001 53.5979 11.2784 54.5178 11.2729ZM56.3792 13.2248C56.2764 13.2519 56.1844 13.3007 56.179 13.3278C56.1736 13.3604 56.152 13.3712 56.1303 13.355C56.1032 13.3387 55.9842 13.4037 55.8597 13.4905C55.7028 13.5989 55.5838 13.7507 55.4918 13.9351L55.3565 14.2225V33.0364C56.2981 32.9822 56.6823 32.9496 56.8175 32.9334C56.9528 32.9171 57.1584 32.89 57.2775 32.8683C57.3965 32.852 57.7483 32.7816 58.0621 32.7056C58.376 32.6352 58.7872 32.5267 58.982 32.4617C59.1768 32.402 59.5502 32.2611 59.8208 32.1526C60.0913 32.0496 60.5567 31.8327 60.8651 31.6701C61.1682 31.5128 61.6173 31.2526 61.8662 31.0899C62.1097 30.9327 62.4831 30.6724 62.6887 30.5098C62.8943 30.3525 63.127 30.1682 63.1974 30.1086C63.2677 30.0489 63.4517 29.8917 63.6032 29.7561C63.7493 29.6206 64.0469 29.3441 64.258 29.1326C64.4636 28.9212 64.8911 28.4495 65.2049 28.0754C65.5188 27.7012 65.9138 27.2133 66.0761 26.991C66.2385 26.7687 66.4711 26.4271 66.5956 26.2319C66.7147 26.0367 66.8662 25.7711 66.9365 25.6355C67.0014 25.5 67.1205 25.2234 67.1908 25.012C67.2666 24.8005 67.3369 24.5945 67.3478 24.5511C67.3532 24.5078 67.4073 24.2855 67.4614 24.0632C67.5317 23.7487 67.5534 23.4288 67.5534 22.6535C67.548 21.7914 67.5263 21.5528 67.4073 20.9727C67.3315 20.5986 67.18 20.0239 67.0718 19.6986C66.9636 19.3732 66.8229 18.9937 66.7634 18.8582C66.7038 18.7226 66.6281 18.5816 66.5902 18.5383C66.5577 18.4949 66.5253 18.4244 66.5198 18.3756C66.509 18.3268 66.4387 18.1804 66.3575 18.0557C66.2709 17.9256 66.1573 17.7413 66.0978 17.6437C66.0383 17.5461 65.8759 17.3238 65.7406 17.1503C65.5999 16.9713 65.2482 16.5918 64.9506 16.3099C64.6584 16.0279 64.2147 15.6484 63.9658 15.4695C63.7168 15.2906 63.4571 15.1171 63.3976 15.0791C63.3326 15.0412 63.2461 14.9978 63.2028 14.9761C63.1595 14.9544 63.0242 14.8731 62.9052 14.7972C62.7861 14.7213 62.6779 14.6345 62.6616 14.6128C62.6454 14.5857 62.6075 14.5695 62.5805 14.5749C62.5534 14.5803 62.3207 14.4827 62.0664 14.3634C61.8121 14.2441 61.4982 14.0977 61.363 14.0435C61.2277 13.9839 60.8651 13.8538 60.5513 13.7616C60.2374 13.664 59.5231 13.4905 58.955 13.3712C58.3273 13.2411 57.7266 13.1543 57.4128 13.1381C57.1314 13.1272 56.8284 13.1327 56.7364 13.1435C56.6444 13.1598 56.4874 13.1977 56.3792 13.2248ZM56.3738 34.5816C56.2872 34.6413 56.2007 34.6901 56.1736 34.6901C56.1411 34.6901 56.0437 34.7822 55.9463 34.8961C55.8489 35.0045 55.7136 35.2214 55.6487 35.3678C55.5784 35.5196 55.508 35.7148 55.4918 35.8015C55.4755 35.8883 55.4377 36.1106 55.4052 36.2895C55.3727 36.4901 55.3619 39.0221 55.3673 43.0126L55.3836 49.4105C55.8056 49.4701 56.5361 49.5026 57.2775 49.5243C58.1379 49.546 58.8846 49.5352 59.3337 49.4972C59.7234 49.4647 60.2915 49.3996 60.6054 49.3508C60.9192 49.3074 61.6335 49.1827 62.2017 49.0797C62.7699 48.9713 63.6086 48.7924 64.0686 48.6785C64.5285 48.5592 65.2212 48.3478 65.6108 48.196C66.0004 48.0496 66.4982 47.8381 66.7201 47.7297C66.9419 47.6158 67.3694 47.3664 67.6616 47.1658C67.9592 46.9706 68.3597 46.6507 68.5599 46.4555C68.7601 46.2603 69.0577 45.9296 69.2255 45.7236C69.3932 45.5176 69.5285 45.3278 69.5339 45.3061C69.5339 45.279 69.6097 45.1326 69.7016 44.9808C69.7936 44.8236 69.9506 44.4494 70.048 44.1512C70.1454 43.853 70.259 43.3651 70.2915 43.0669C70.3348 42.7415 70.351 42.2915 70.3293 41.9283C70.3131 41.603 70.259 41.1367 70.2103 40.8981C70.167 40.6595 70.0642 40.2583 69.983 40.0035C69.9019 39.7487 69.7071 39.2878 69.5447 38.9733C69.3824 38.6589 69.1226 38.2197 68.9603 37.9974C68.798 37.7751 68.6627 37.5799 68.6519 37.5637C68.6465 37.5474 68.5058 37.4173 68.338 37.2654C68.1757 37.1191 67.7861 36.8263 67.4722 36.6202C67.1638 36.4142 66.5577 36.0618 66.1248 35.8395C65.6919 35.6118 65.3348 35.4329 65.324 35.4383C65.3186 35.4437 65.2266 35.4112 65.1238 35.3678C65.0209 35.3244 64.9019 35.2865 64.864 35.2865C64.8315 35.2865 64.772 35.2648 64.745 35.2377C64.7179 35.2106 64.561 35.1509 64.4041 35.1021C64.2525 35.0533 64.1227 35.0316 64.1227 35.0587C64.1227 35.0804 64.101 35.0696 64.0794 35.0371C64.0577 35.0045 63.771 34.9124 63.4463 34.8364C63.1216 34.7605 62.6346 34.6575 62.364 34.6141C62.0935 34.5708 61.6443 34.5057 61.363 34.4786C61.0816 34.4461 60.2915 34.381 59.6043 34.3376C58.9171 34.2943 58.127 34.2563 57.8457 34.2617C57.521 34.2617 57.1855 34.2997 56.9258 34.3702C56.7039 34.4244 56.455 34.522 56.3684 34.5816H56.3738ZM110.8 11.2729C111.725 11.2729 113.089 11.2946 113.83 11.3217C114.577 11.3543 115.486 11.4031 115.859 11.4302C116.233 11.4627 116.866 11.5224 117.266 11.5712C117.667 11.6199 118.056 11.6633 118.132 11.6742C118.208 11.685 118.56 11.7447 118.917 11.8043C119.274 11.8694 119.918 12.0049 120.351 12.1133C120.784 12.2164 121.173 12.314 121.216 12.3248C121.26 12.3356 121.519 12.4224 121.785 12.5146C122.05 12.6067 122.526 12.7965 122.84 12.932C123.154 13.073 123.587 13.2899 123.803 13.42C124.014 13.5501 124.193 13.6369 124.193 13.6098C124.193 13.5881 124.231 13.6206 124.285 13.6857C124.339 13.7453 124.452 13.8429 124.544 13.8971C124.636 13.9568 124.961 14.1953 125.275 14.4393C125.583 14.6779 126.097 15.1279 126.411 15.4424C126.725 15.7568 127.126 16.2069 127.31 16.4454C127.488 16.684 127.759 17.0852 127.91 17.34C128.062 17.5949 128.267 17.969 128.359 18.1804C128.457 18.3919 128.619 18.8039 128.722 19.1021C128.819 19.4003 128.96 19.9154 129.025 20.2407C129.122 20.7396 129.144 21.0215 129.144 21.9486C129.144 22.7728 129.122 23.1848 129.052 23.5481C129.003 23.8192 128.89 24.2692 128.798 24.5511C128.711 24.8331 128.554 25.2614 128.451 25.5C128.354 25.7385 128.159 26.1289 128.035 26.3675C127.905 26.606 127.58 27.1536 127.315 27.5874C127.044 28.0211 126.639 28.6284 126.406 28.9429C126.173 29.2573 125.746 29.7453 125.453 30.0272C125.161 30.3146 124.804 30.6453 124.653 30.77C124.506 30.8893 124.176 31.1333 123.922 31.3014C123.668 31.4749 123.224 31.7297 122.937 31.8761C122.645 32.0225 122.18 32.2177 121.909 32.3098C121.633 32.402 121.26 32.5159 120.757 32.6297L121.081 32.5972C121.26 32.5755 121.639 32.5647 121.92 32.5701C122.201 32.5755 122.818 32.6026 123.289 32.6297C123.754 32.6623 124.398 32.7219 124.723 32.7707C125.042 32.8141 125.524 32.9008 125.789 32.9605C126.054 33.0201 126.606 33.1828 127.006 33.3183C127.407 33.4539 128.002 33.7033 128.332 33.8713C128.662 34.0394 129.149 34.3376 129.414 34.5328C129.68 34.728 129.972 34.9557 130.064 35.0371C130.156 35.1238 130.356 35.3136 130.513 35.4708C130.67 35.6226 130.87 35.8341 130.962 35.9371C131.049 36.0401 131.271 36.3329 131.454 36.5877C131.638 36.8425 131.909 37.2546 132.055 37.5094C132.196 37.7643 132.407 38.2522 132.521 38.5938C132.64 38.9354 132.764 39.3854 132.802 39.5969C132.851 39.8463 132.878 40.3613 132.872 41.0879C132.872 42.0367 132.856 42.2861 132.748 42.7687C132.683 43.0831 132.558 43.5548 132.472 43.8259C132.385 44.097 132.207 44.5579 132.082 44.8561C131.952 45.1543 131.736 45.5826 131.595 45.8049C131.46 46.0272 131.243 46.3471 131.124 46.5098C131 46.6724 130.724 46.9869 130.508 47.2092C130.296 47.4261 129.923 47.7622 129.685 47.9466C129.447 48.1363 129.047 48.4183 128.792 48.5755C128.538 48.7327 128.072 48.993 127.753 49.1502C127.429 49.3074 127.153 49.4376 127.131 49.4376C127.104 49.4376 126.99 49.4809 126.871 49.5406C126.752 49.6002 126.292 49.7683 125.843 49.9147C125.399 50.0665 124.604 50.2725 124.084 50.381C123.565 50.484 122.629 50.6466 122.001 50.7334C121.373 50.8256 120.502 50.934 120.053 50.9828C119.609 51.0262 118.684 51.1184 117.997 51.1834C116.839 51.2919 116.368 51.2973 105.849 51.3352V36.6799C105.849 28.585 105.822 21.4715 105.794 20.7829C105.767 20.0998 105.73 18.766 105.708 17.828C105.686 16.646 105.697 15.7568 105.746 14.9273C105.784 14.2712 105.816 13.6206 105.816 13.4742C105.822 13.3333 105.832 13.2194 105.849 13.2194C105.865 13.2194 105.892 13.1218 105.919 13.0025C105.941 12.8832 106.006 12.6881 106.065 12.5688C106.125 12.4495 106.276 12.2543 106.406 12.1296C106.53 12.0103 106.779 11.8422 106.958 11.7555C107.136 11.6687 107.477 11.544 107.715 11.4844C107.954 11.4248 108.37 11.3543 108.635 11.3272C108.901 11.3055 109.875 11.2784 110.8 11.2729V11.2729ZM112.775 13.2302C112.64 13.2628 112.445 13.3441 112.342 13.4092C112.239 13.4742 112.093 13.5989 112.012 13.6857C111.936 13.7724 111.833 13.9839 111.785 14.152C111.698 14.4447 111.693 15.1821 111.693 23.7379V33.0093C112.385 33.0038 112.759 32.9822 112.964 32.9551C113.17 32.9225 113.468 32.8846 113.614 32.8683C113.765 32.852 114.106 32.7924 114.371 32.7328C114.636 32.6731 115.188 32.5105 115.589 32.3749C115.989 32.2394 116.612 31.9845 116.969 31.8056C117.326 31.6267 117.656 31.4478 117.699 31.4152C117.742 31.3773 117.824 31.3285 117.878 31.3122C117.926 31.2905 118.148 31.155 118.365 31.0086C118.576 30.8676 118.998 30.5532 119.295 30.3146C119.593 30.0815 120.053 29.6802 120.318 29.4254C120.583 29.176 121.032 28.6989 121.325 28.3736C121.611 28.0482 122.109 27.4247 122.429 26.991C122.818 26.4705 123.11 26.0042 123.3 25.6084C123.473 25.2506 123.652 24.7734 123.744 24.4156C123.884 23.8517 123.895 23.7541 123.895 22.6806C123.895 21.7914 123.873 21.439 123.798 21.0811C123.744 20.8263 123.641 20.4142 123.57 20.1594C123.5 19.9046 123.413 19.6226 123.376 19.5359C123.338 19.4437 123.305 19.3624 123.3 19.3461C123.3 19.3299 123.262 19.2214 123.224 19.1021C123.186 18.9829 123.024 18.6467 122.872 18.3485C122.721 18.0557 122.553 17.7684 122.504 17.7141C122.45 17.6545 122.407 17.6003 122.407 17.584C122.407 17.5678 122.326 17.4539 122.234 17.3238C122.136 17.1936 121.936 16.9442 121.785 16.7707C121.639 16.5972 121.308 16.2719 121.054 16.055C120.8 15.8328 120.389 15.5129 120.134 15.3394C119.88 15.1713 119.566 14.9707 119.431 14.8893C119.295 14.8134 119.041 14.6725 118.863 14.5749C118.684 14.4773 118.332 14.3092 118.078 14.1953C117.824 14.0815 117.434 13.9297 117.212 13.8538C116.99 13.7779 116.671 13.6803 116.509 13.6369C116.346 13.5881 115.919 13.4905 115.562 13.4146C115.205 13.3441 114.674 13.2411 114.388 13.1977C114.095 13.1489 113.727 13.1164 113.576 13.1164C113.419 13.1218 113.23 13.1327 113.154 13.1489C113.078 13.1598 112.91 13.1977 112.775 13.2302ZM112.748 34.5653C112.629 34.6304 112.439 34.7714 112.326 34.8907C112.207 35.0045 112.082 35.1563 112.044 35.2322C112.007 35.3081 111.915 35.5738 111.844 35.8286L111.72 36.2895V49.4105C112.894 49.5297 113.581 49.546 114.479 49.5243C115.248 49.5135 116.125 49.4647 116.509 49.4159C116.882 49.3671 117.477 49.2749 117.834 49.2153C118.192 49.1556 118.776 49.0472 119.133 48.9713C119.49 48.8954 120.031 48.7761 120.34 48.7002C120.643 48.6297 121.227 48.4562 121.639 48.3207C122.044 48.1797 122.586 47.9682 122.84 47.8435C123.094 47.7134 123.473 47.5128 123.679 47.3827C123.884 47.258 124.182 47.0682 124.328 46.9652C124.479 46.8622 124.745 46.6399 124.918 46.4664C125.091 46.2983 125.361 46.0001 125.518 45.8049C125.67 45.6097 125.87 45.3278 125.957 45.1814C126.043 45.0296 126.162 44.8019 126.216 44.6663C126.271 44.5308 126.346 44.3356 126.39 44.2326C126.427 44.1296 126.503 43.8856 126.557 43.6904C126.633 43.4084 126.655 43.1157 126.655 42.2536C126.655 41.5216 126.633 41.0716 126.579 40.871C126.541 40.7083 126.455 40.3776 126.384 40.139C126.319 39.9005 126.168 39.5101 126.054 39.2715C125.946 39.033 125.74 38.6534 125.61 38.4312C125.475 38.2089 125.253 37.889 125.118 37.7263C124.983 37.5637 124.782 37.3468 124.68 37.2492C124.577 37.1516 124.344 36.9618 124.166 36.8317C123.987 36.7016 123.808 36.5931 123.776 36.5877C123.738 36.5877 123.7 36.5714 123.695 36.5443C123.684 36.5226 123.608 36.4522 123.516 36.3925C123.424 36.3275 123.062 36.1323 122.705 35.9479C122.347 35.769 121.898 35.5521 121.703 35.46C121.509 35.3732 121.254 35.2702 121.135 35.2268C121.016 35.1834 120.897 35.1509 120.865 35.1455C120.832 35.1455 120.74 35.113 120.648 35.075C120.556 35.0371 120.145 34.9232 119.728 34.8256C119.312 34.7226 118.706 34.6033 118.376 34.5599C118.045 34.5111 117.315 34.4352 116.752 34.3918C116.189 34.3431 115.248 34.2943 114.669 34.2834C113.754 34.2617 113.57 34.2671 113.289 34.3539C113.11 34.4081 112.867 34.5057 112.748 34.5653ZM87.8292 20.8426C88.1431 20.8534 88.5435 20.8914 88.7221 20.9185C88.9007 20.9456 89.0955 20.9835 89.155 20.9944C89.2145 21.0106 89.458 21.0811 89.6961 21.1625C89.9342 21.2438 90.3509 21.4173 90.616 21.5474C90.8866 21.6775 91.3249 21.9269 91.59 22.1004C91.8606 22.2794 92.3043 22.6372 92.5857 22.9029C92.8617 23.1686 93.2026 23.5427 93.3379 23.7379C93.4785 23.933 93.6788 24.28 93.7924 24.5078C93.906 24.7409 94.0467 25.1096 94.1117 25.321C94.1982 25.6138 94.2307 25.9283 94.2524 26.503C94.274 27.1699 94.2632 27.3705 94.1604 27.8314C94.1008 28.1296 94.0413 28.4007 94.0305 28.4278C94.0197 28.4549 93.9872 28.5525 93.9493 28.6447C93.9114 28.7314 93.8195 28.9537 93.7383 29.1326C93.6571 29.3115 93.4948 29.6043 93.3757 29.7833C93.2621 29.9622 93.0835 30.1953 92.9861 30.2983C92.8887 30.4013 92.7913 30.526 92.7751 30.5694C92.7589 30.6128 92.5208 30.8514 92.2502 31.0953C91.9742 31.3393 91.5954 31.6592 91.4006 31.8002C91.2058 31.9357 90.8433 32.1743 90.589 32.3261C90.3346 32.4779 89.8855 32.7219 89.5987 32.8737C89.3119 33.0201 89.0738 33.1557 89.0738 33.1719C89.0738 33.1882 89.2903 33.4918 89.55 33.8551C89.8097 34.2129 90.2156 34.7822 90.4537 35.113C90.6918 35.4491 91.0868 35.9967 91.3303 36.3275C91.5792 36.6636 91.7957 36.9672 91.8227 36.9944C91.8444 37.0215 91.9688 37.195 92.1041 37.3793C92.2394 37.5582 92.5857 38.0354 92.8779 38.4366C93.1701 38.8378 93.6355 39.4667 93.906 39.8354C94.182 40.2041 94.4309 40.5457 94.458 40.5945C94.485 40.6433 94.5716 40.7571 94.6474 40.8547C94.7231 40.9469 94.9775 41.2993 95.2156 41.6301C95.4536 41.9608 95.8865 42.5572 96.1787 42.9476C96.471 43.3434 96.8768 43.891 97.0824 44.1621C97.2935 44.4386 97.5261 44.7097 97.6019 44.7585C97.7155 44.8398 97.7588 44.8452 97.8725 44.7856C97.9428 44.7476 98.0564 44.5958 98.1322 44.4332C98.2025 44.2814 98.2945 43.9777 98.3432 43.7717C98.3865 43.5603 98.4515 43.1211 98.4839 42.7958C98.5164 42.4705 98.5705 41.7819 98.5976 41.2776C98.63 40.768 98.6679 39.2878 98.7328 35.6118H97.6668C97.077 35.6118 96.5359 35.5847 96.4601 35.5576C96.3844 35.5304 96.2762 35.4545 96.2166 35.3949C96.1517 35.3298 96.1084 35.2106 96.1084 35.1075C96.1084 34.9883 96.1517 34.8907 96.3898 34.6629L99.4796 34.6467C101.487 34.6358 102.753 34.6521 103.089 34.6901C103.381 34.7226 103.673 34.7876 103.765 34.8473C103.857 34.8961 103.955 35.0045 103.982 35.0859C104.02 35.1889 104.014 35.2648 103.955 35.3732C103.911 35.4545 103.814 35.5576 103.738 35.6063C103.635 35.6768 103.408 35.6985 101.709 35.7473L101.671 36.154C101.649 36.3763 101.606 36.8154 101.574 37.1299C101.536 37.4444 101.487 37.8076 101.46 37.9432C101.438 38.0787 101.401 38.2739 101.39 38.3769C101.374 38.4799 101.227 39.0926 101.065 39.7324C100.903 40.3722 100.632 41.359 100.459 41.9283C100.291 42.4976 100.14 43.0181 100.124 43.094C100.113 43.1699 100.08 43.2566 100.059 43.2837C100.037 43.3108 99.9883 43.4355 99.9504 43.5548C99.9125 43.6741 99.7826 44.0157 99.669 44.3139C99.5499 44.6121 99.3443 45.073 99.209 45.3441C99.0196 45.729 98.9601 45.9079 98.906 46.5911L99.4688 47.3339C99.7772 47.7459 100.134 48.2231 100.264 48.3911C100.394 48.5646 100.524 48.7436 100.562 48.7869C100.6 48.8303 100.789 49.0743 100.979 49.3237C101.173 49.5731 101.52 50.0231 101.752 50.3268C101.985 50.6304 102.234 50.9665 102.304 51.075C102.38 51.1888 102.467 51.2919 102.494 51.3081C102.521 51.3244 102.548 51.384 102.548 51.4437C102.548 51.5413 102.521 51.5467 102.32 51.5196C102.191 51.5033 102.001 51.4599 101.898 51.4328C101.796 51.4003 101.59 51.3135 101.438 51.2376C101.292 51.1617 101.098 51.0533 101.006 50.9882C100.914 50.9232 100.757 50.8039 100.654 50.7171C100.551 50.6304 100.259 50.3756 100.01 50.1478C99.761 49.9201 99.4796 49.6544 99.3876 49.5514C99.2956 49.4484 99.1603 49.302 99.0846 49.2207C99.0088 49.1394 98.7761 48.8954 98.5705 48.6731C98.3595 48.4508 98.0835 48.1363 97.9482 47.9737C97.8183 47.811 97.6993 47.6646 97.6885 47.6483C97.6777 47.6321 97.5586 47.7568 97.4233 47.9194C97.2826 48.0821 96.9039 48.4887 96.5738 48.8141C96.2437 49.1394 95.827 49.5189 95.6484 49.6544C95.4699 49.79 95.1885 49.9906 95.0262 50.099C94.8638 50.2075 94.5824 50.3701 94.4039 50.4677C94.2253 50.5653 93.8086 50.7497 93.484 50.8852C93.1593 51.0153 92.656 51.1834 92.3747 51.2593C92.0933 51.3298 91.5684 51.4328 91.2113 51.4762C90.7296 51.5413 90.34 51.5575 89.6961 51.5304C89.2199 51.5141 88.5165 51.4654 88.1269 51.4166C87.7372 51.3732 87.2069 51.2973 86.9364 51.2539C86.6658 51.2051 86.1463 51.0912 85.773 50.9991C85.3996 50.9069 84.8585 50.7497 84.5717 50.6521C84.2795 50.5491 83.852 50.381 83.6247 50.2671C83.392 50.1587 83.0295 49.9689 82.8239 49.8496C82.6182 49.7249 82.2503 49.4755 82.0122 49.2966C81.7741 49.1177 81.4278 48.7978 81.2438 48.5918C81.0598 48.3857 80.7946 48.0441 80.6594 47.8381C80.5187 47.6321 80.3401 47.3122 80.2589 47.1333C80.1778 46.9543 80.0641 46.7104 80.01 46.5911C79.9559 46.4718 79.8423 46.1682 79.7557 45.9133C79.6691 45.6585 79.5934 45.4145 79.5825 45.3712C79.5717 45.3278 79.523 45.1434 79.4797 44.9645C79.431 44.7856 79.3553 44.4223 79.3066 44.1512C79.2633 43.8801 79.2092 43.3705 79.1929 43.0126C79.1713 42.6385 79.1821 42.1235 79.22 41.7927C79.2525 41.4783 79.3444 40.9523 79.4256 40.627C79.5014 40.3017 79.6637 39.7866 79.7882 39.4884C79.9126 39.1902 80.1399 38.7131 80.3022 38.4312C80.4646 38.1492 80.7676 37.6829 80.9786 37.401C81.1897 37.1191 81.6172 36.6257 81.931 36.3058C82.2449 35.9805 82.5154 35.7202 82.5371 35.7202C82.5533 35.7202 82.6399 35.6551 82.7265 35.5684C82.8076 35.4871 82.9862 35.3353 83.1161 35.2322C83.2459 35.1292 83.3812 35.0154 83.4137 34.9883C83.4461 34.9557 83.7167 34.7605 84.0143 34.5545C84.3119 34.3431 84.6366 34.1045 84.7394 34.0123C84.8422 33.9256 84.9396 33.8063 84.9559 33.7466C84.9775 33.6762 84.8964 33.5569 84.615 33.2858C84.4093 33.0906 84.0143 32.6568 83.7329 32.3315C83.4461 32.0062 83.0078 31.4152 82.7481 31.0303C82.4884 30.6399 82.1691 30.0923 82.0338 29.8104C81.8931 29.5284 81.72 29.1218 81.6442 28.9158C81.5739 28.7043 81.4656 28.341 81.4115 28.1025C81.3358 27.7826 81.3087 27.4627 81.3087 26.8825C81.3141 26.3349 81.3412 25.9554 81.4115 25.6355C81.4656 25.3807 81.5847 24.9686 81.6713 24.7138C81.7633 24.459 81.9094 24.0957 82.0014 23.9005C82.0933 23.7053 82.2665 23.4125 82.3855 23.2499C82.4992 23.0872 82.6832 22.8595 82.7914 22.7402C82.8996 22.6264 83.181 22.3824 83.4191 22.2089C83.6572 22.03 83.9494 21.8348 84.0684 21.7751C84.1875 21.7101 84.2957 21.6396 84.3119 21.6125C84.3282 21.5854 84.3661 21.5583 84.3931 21.5528C84.4202 21.5528 84.6204 21.4715 84.826 21.3739C85.0316 21.2817 85.4591 21.1354 85.773 21.0594C86.0868 20.9781 86.5468 20.8914 86.8011 20.8643C87.0554 20.8371 87.5154 20.8263 87.8292 20.8426ZM87.0446 22.3011C86.8985 22.3878 86.6225 22.6209 86.4331 22.8161C86.2437 23.0113 86.0814 23.2119 86.0706 23.2607C86.0544 23.3149 86.0273 23.3583 86.0057 23.3583C85.9786 23.3583 85.9299 23.418 85.8974 23.4939C85.8596 23.5698 85.8325 23.6403 85.8433 23.6511C85.8487 23.6619 85.8163 23.7162 85.7676 23.7704C85.7189 23.83 85.616 24.0306 85.5403 24.2258C85.4645 24.421 85.3617 24.8222 85.313 25.1204C85.2373 25.5488 85.221 25.8253 85.2481 26.4217C85.2697 26.8554 85.3238 27.3651 85.3834 27.6145C85.4429 27.8531 85.5295 28.1675 85.5782 28.3193C85.6323 28.4657 85.708 28.6772 85.7513 28.7802C85.8 28.8832 85.865 29.0405 85.9028 29.1326C85.9407 29.2194 86.0165 29.3929 86.076 29.5122C86.1301 29.6314 86.2979 29.9242 86.444 30.1628C86.5901 30.4013 86.8065 30.7321 86.9256 30.8947C87.05 31.0574 87.2719 31.3393 87.4234 31.5183C87.5803 31.6972 87.7481 31.914 87.8076 32.0062C87.8617 32.093 87.9483 32.196 87.9916 32.2339C88.0349 32.2719 88.116 32.3044 88.1701 32.3044C88.2188 32.3044 88.3054 32.2394 88.3649 32.1526C88.4191 32.0713 88.8195 31.3122 89.247 30.461C89.6745 29.6098 90.1074 28.7314 90.2048 28.5091C90.3022 28.2868 90.3887 28.0754 90.3942 28.0482C90.405 28.0211 90.4753 27.8476 90.5565 27.6687C90.6322 27.4898 90.7242 27.2079 90.7513 27.0452C90.7838 26.8825 90.8054 26.5464 90.8054 26.297C90.8054 26.053 90.7784 25.6735 90.7459 25.4566C90.7134 25.2451 90.6268 24.8602 90.5511 24.6054C90.4753 24.3505 90.34 23.9981 90.2481 23.8192C90.1561 23.6403 89.9937 23.3692 89.8909 23.2228C89.7881 23.071 89.5717 22.8161 89.4039 22.6535C89.2362 22.4908 89.0143 22.3173 88.9115 22.2685C88.8087 22.2197 88.6626 22.1492 88.5868 22.1113C88.5111 22.0733 88.4191 22.0571 88.3866 22.0788C88.3487 22.095 88.3054 22.0842 88.2892 22.0571C88.273 22.03 88.1593 22.0029 88.0349 22.0083C87.905 22.0083 87.694 22.0408 87.5587 22.0733C87.4234 22.1113 87.1961 22.2143 87.0446 22.3011ZM85.5241 35.0154C85.4104 35.1184 85.1074 35.4383 84.8585 35.7202C84.4959 36.1323 84.3444 36.36 84.1171 36.8317C83.9602 37.157 83.7492 37.6829 83.6464 37.9974C83.5435 38.3119 83.4083 38.8107 83.3487 39.1089C83.2838 39.4071 83.2081 39.9222 83.1702 40.2475C83.1323 40.6162 83.1215 41.1855 83.1377 41.7385C83.1594 42.3132 83.2135 42.8283 83.2838 43.1753C83.3487 43.4735 83.4732 43.9506 83.5598 44.2326C83.6518 44.5145 83.8303 44.9537 83.9494 45.2085C84.0684 45.4633 84.2578 45.8049 84.3661 45.9676C84.4743 46.1302 84.6366 46.3742 84.7286 46.5098C84.8206 46.6453 85.1236 46.9815 85.3996 47.2634C85.6918 47.5562 86.1355 47.9249 86.4494 48.1309C86.747 48.3315 87.2069 48.5972 87.4775 48.7273C87.7481 48.8574 88.0132 48.9821 88.0727 49.0092C88.1323 49.0364 88.3433 49.1177 88.5489 49.1936C88.7491 49.2695 88.971 49.3346 89.0468 49.34C89.1225 49.3508 89.182 49.3671 89.182 49.3834C89.182 49.3996 89.3552 49.4484 89.5717 49.4918C89.7881 49.5352 90.0045 49.5731 90.0478 49.5785C90.0911 49.584 90.3617 49.6165 90.6431 49.649C91.0219 49.6978 91.379 49.6978 91.9959 49.6544C92.4558 49.6219 92.8454 49.584 92.8617 49.5731C92.8779 49.5623 92.9861 49.5406 93.1052 49.5243C93.2242 49.5081 93.5381 49.4321 93.8086 49.3562C94.0792 49.2749 94.4904 49.1177 94.7285 48.9984C94.9666 48.8845 95.2534 48.7327 95.3671 48.6677C95.4753 48.5972 95.7134 48.4183 95.8974 48.2719C96.0759 48.1201 96.2762 47.914 96.3357 47.811C96.4006 47.708 96.4547 47.5941 96.4547 47.5562C96.4601 47.5236 96.4818 47.4748 96.5034 47.4477C96.5251 47.4261 96.5413 47.3122 96.5413 47.1983C96.5413 47.0899 96.4818 46.8839 96.4114 46.7375C96.3357 46.5965 95.8108 45.9459 95.2318 45.2844C94.6582 44.6284 94.1008 43.9832 93.998 43.8585C93.8952 43.7337 93.7112 43.5169 93.5922 43.3813C93.4731 43.2512 93.3 43.0506 93.208 42.9422C93.116 42.8283 92.932 42.6168 92.7967 42.4705C92.6669 42.3186 92.1799 41.7602 91.7199 41.2288C91.26 40.6921 90.8 40.1553 90.6972 40.036C90.5944 39.9113 90.01 39.2282 89.3985 38.5179C88.787 37.8022 87.9645 36.8371 87.5695 36.3763C87.1745 35.91 86.6875 35.3298 86.4873 35.0859C86.287 34.8419 86.0868 34.6413 86.0381 34.6413C85.9894 34.6358 85.9028 34.6792 85.8433 34.728C85.7838 34.7822 85.6377 34.9123 85.5241 35.0154Z" fill="white"/>
<g id="Vector_6">
<path d="M90.6492 55.2553C90.7411 55.0818 90.8385 54.9083 90.871 54.8758C90.8981 54.8378 91.0333 54.8053 91.174 54.8053C91.3093 54.8053 91.4392 54.8161 91.4662 54.8324C91.4879 54.8487 91.3851 55.0168 91.2336 55.2119C90.9738 55.5535 90.9576 55.5644 90.476 55.5644L90.6492 55.2553Z" fill="#0066B3"/>
<path d="M58.3604 58.1126C58.6201 57.4403 58.9286 56.6433 59.0476 56.3397C59.237 55.8409 59.2749 55.7812 59.3939 55.7812C59.4968 55.7812 59.5455 55.83 59.6374 56.0415C59.697 56.1825 59.9675 56.8548 60.2381 57.5433C60.5032 58.2319 60.7846 58.9422 60.9848 59.4681H60.2543L60.0325 58.7904H58.7933L58.5768 59.4681H58.2143C57.9437 59.4681 57.8517 59.4518 57.868 59.4031C57.8788 59.3651 58.1007 58.785 58.3604 58.1126Z" fill="#0066B3"/>
<path d="M66.7748 55.8355L67.1699 55.8138C67.3809 55.8083 67.7326 55.8083 67.9383 55.8246C68.1439 55.8355 68.4144 55.8843 68.5335 55.9276C68.6525 55.971 68.7986 56.0469 68.8528 56.0957C68.9069 56.1445 68.9989 56.2855 69.053 56.4048C69.1071 56.524 69.1558 56.7301 69.1504 56.8656C69.1504 57.012 69.1017 57.2072 69.0259 57.3536C68.961 57.4891 68.8203 57.6572 68.7175 57.7223C68.6147 57.7928 68.5389 57.8741 68.5497 57.9012C68.5551 57.9283 68.7608 58.259 69.0097 58.644C69.2586 59.0235 69.475 59.3651 69.4967 59.4031C69.5237 59.4518 69.4426 59.4681 68.777 59.4681L68.658 59.2675C68.593 59.1536 68.3874 58.8229 68.198 58.5356C67.9545 58.156 67.8246 58.0042 67.7489 58.0042C67.6893 58.0042 67.6028 57.9934 67.5595 57.9771C67.4891 57.9554 67.4783 58.0584 67.4783 59.4681H66.7748V55.8355Z" fill="#0066B3"/>
<path d="M71.5908 57.6247C71.9804 56.627 72.2943 55.8029 72.2943 55.7975C72.2943 55.7867 72.3592 55.7812 72.4458 55.7812C72.5865 55.7812 72.6081 55.8246 72.9653 56.7463C73.1709 57.2723 73.4848 58.0747 73.6633 58.5193C73.8365 58.9693 73.9934 59.3651 74.0042 59.4031C74.0205 59.4518 73.9285 59.4681 73.2954 59.4681L73.0735 58.7904H71.8343L71.6179 59.4681H71.2553C71.0497 59.4681 70.8874 59.4627 70.8874 59.4573C70.8874 59.4464 71.2012 58.6223 71.5908 57.6247Z" fill="#0066B3"/>
<path d="M86.5258 55.8355L86.9208 55.8138C87.1319 55.8083 87.4565 55.8083 87.6351 55.8192C87.8137 55.83 88.0518 55.8626 88.1654 55.8951C88.2736 55.9222 88.4414 56.009 88.5388 56.0957C88.6308 56.177 88.739 56.3234 88.7823 56.421C88.8202 56.5132 88.8526 56.7192 88.8526 56.8656C88.8526 57.0174 88.8202 57.218 88.7823 57.3156C88.739 57.4078 88.6091 57.5813 88.2574 57.8958L89.226 59.3868L89.3396 59.1157C89.4046 58.9693 89.594 58.4922 89.7563 58.0584C89.924 57.6247 90.1892 56.9415 90.3407 56.5403C90.6113 55.8355 90.6329 55.8083 90.779 55.8083C90.9305 55.8083 90.9468 55.8355 91.4121 57.0283C91.6719 57.7006 91.9911 58.5193 92.3429 59.4627L91.6124 59.4681L91.4121 58.7904L90.779 58.7795C90.3894 58.7687 90.1513 58.785 90.1513 58.8175C90.1513 58.8446 90.1026 59.0073 89.9349 59.4681L88.5009 59.4627L88.3169 59.1536C88.2141 58.9856 88.0085 58.6603 87.8624 58.438L87.8432 58.4087C87.7055 58.1993 87.5916 58.0259 87.5864 58.0259C87.5864 58.021 87.5059 58.0071 87.2556 57.9639L87.1751 57.95V59.4681H86.5258V55.8355Z" fill="#0066B3"/>
<path d="M100.736 56.1716C100.882 56.0415 101.109 55.9059 101.244 55.8626C101.38 55.8246 101.623 55.7867 101.785 55.7867C101.948 55.7812 102.208 55.8192 102.354 55.868C102.505 55.9168 102.646 55.971 102.667 55.9927C102.695 56.009 102.673 56.1445 102.613 56.2855C102.559 56.4264 102.505 56.5457 102.489 56.5457C102.473 56.5457 102.37 56.5078 102.262 56.459C102.148 56.4156 101.959 56.3776 101.84 56.3776C101.721 56.3776 101.558 56.4048 101.477 56.4373C101.39 56.4698 101.266 56.5457 101.196 56.6108C101.125 56.6758 101.012 56.8548 100.941 57.0012C100.838 57.218 100.811 57.3644 100.811 57.706C100.811 58.0151 100.844 58.2048 100.914 58.3566C100.968 58.4759 101.082 58.644 101.169 58.7253C101.277 58.8283 101.407 58.888 101.569 58.9097C101.704 58.9259 101.904 58.9259 102.018 58.9042C102.126 58.888 102.289 58.8121 102.543 58.6006L102.619 58.7253C102.662 58.7904 102.732 58.9097 102.77 58.991C102.835 59.1265 102.83 59.1482 102.705 59.2458C102.63 59.3055 102.462 59.3922 102.327 59.441C102.191 59.4844 101.904 59.5223 101.677 59.5223C101.363 59.5223 101.212 59.4898 101.001 59.3922C100.855 59.3217 100.665 59.197 100.584 59.1103C100.503 59.0235 100.373 58.8066 100.287 58.6277C100.151 58.3349 100.135 58.2428 100.135 57.706C100.135 57.1421 100.146 57.0879 100.303 56.7572C100.411 56.5349 100.573 56.318 100.736 56.1716Z" fill="#0066B3"/>
<path d="M103.706 56.1825C103.825 56.0632 104.031 55.9222 104.166 55.8734C104.334 55.8138 104.534 55.7867 104.816 55.7975C105.119 55.8138 105.292 55.8517 105.492 55.9493C105.654 56.0306 105.833 56.1825 105.941 56.3288C106.044 56.459 106.158 56.6921 106.201 56.8385C106.25 56.9957 106.282 57.3211 106.277 57.6138C106.277 57.9175 106.239 58.2373 106.185 58.4271C106.136 58.5952 106.017 58.8338 105.925 58.953C105.833 59.0723 105.671 59.2241 105.568 59.2946C105.47 59.3651 105.297 59.441 105.195 59.4681C105.092 59.5006 104.859 59.5223 104.68 59.5223C104.502 59.5223 104.269 59.4952 104.166 59.4627C104.064 59.4247 103.896 59.3434 103.804 59.2729C103.706 59.2024 103.566 59.0506 103.495 58.9422C103.425 58.8283 103.328 58.5898 103.274 58.4108C103.203 58.1723 103.187 57.9446 103.198 57.5433C103.214 57.1042 103.246 56.9469 103.36 56.703C103.436 56.5403 103.593 56.3072 103.706 56.1825Z" fill="#0066B3"/>
<path d="M116.688 59.4031C116.704 59.3651 117.023 58.5356 117.402 57.5596C118.057 55.8788 118.106 55.7812 118.236 55.7812C118.355 55.7812 118.392 55.83 118.544 56.1987C118.636 56.4319 118.961 57.2506 119.258 58.0205C119.561 58.785 119.805 59.4247 119.805 59.441C119.805 59.4573 119.642 59.4627 119.085 59.441L118.858 58.7904H117.619L117.397 59.4681H117.034C116.764 59.4681 116.672 59.4518 116.688 59.4031Z" fill="#0066B3"/>
<path d="M54.4589 57.8687C54.6267 57.0337 54.789 56.2367 54.8215 56.0957C54.8756 55.8517 54.8918 55.8355 55.0487 55.8355C55.2165 55.8355 55.2273 55.8463 55.3409 56.2258C55.4113 56.4427 55.5682 56.9469 55.6927 57.3482C55.8225 57.7494 55.9578 58.0855 55.9957 58.0964C56.0336 58.1018 56.0715 58.0476 56.0931 57.9663C56.1093 57.8795 56.2176 57.5108 56.3312 57.1367C56.4502 56.7626 56.5855 56.318 56.6396 56.1445C56.7316 55.8517 56.7479 55.8355 56.9156 55.8355C57.0076 55.8355 57.0888 55.8517 57.0888 55.8788C57.0888 55.9005 57.2457 56.6975 57.4405 57.6518C57.6353 58.606 57.7922 59.4031 57.7922 59.4302C57.7922 59.4518 57.6515 59.4681 57.1699 59.4681L57.013 58.6169C56.9264 58.1452 56.8398 57.7331 56.8128 57.706C56.7911 57.6789 56.6613 57.9663 56.526 58.3566C56.3853 58.747 56.2284 59.1645 56.1797 59.2946C56.1147 59.4573 56.0552 59.5278 55.9795 59.5278C55.8875 59.5278 55.8171 59.3814 55.5466 58.6277C55.368 58.1343 55.2002 57.7385 55.1678 57.7494C55.1407 57.7602 55.0433 58.1506 54.789 59.4681H54.4806C54.3074 59.4681 54.1613 59.4518 54.1613 59.4302C54.1559 59.4085 54.2912 58.7091 54.4589 57.8687Z" fill="#0066B3"/>
<path d="M60.5411 56.1716C60.5357 56.0252 60.5519 55.8897 60.579 55.8734C60.6061 55.8517 61.277 55.8355 63.5281 55.8355V56.4319H62.3376V59.4681H61.6883V56.4319H60.5519L60.5411 56.1716Z" fill="#0066B3"/>
<path d="M63.961 59.4681V57.6518V55.8355H66.2337V56.4319H64.6104V57.2451H65.7467V57.8416H64.6104V58.8717L66.2067 58.8988L66.2337 59.4681H63.961Z" fill="#0066B3"/>
<path d="M69.8592 59.4681V57.6518V55.8355H70.5086V59.4681H69.8592Z" fill="#0066B3"/>
<path d="M74.4047 59.4681V57.6518V55.8355H75.054V58.8717H76.6774V59.4681H74.4047Z" fill="#0066B3"/>
<path d="M78.4523 57.6897C78.4468 56.7084 78.4685 55.8897 78.4901 55.868C78.5172 55.8463 78.6741 55.8355 79.1395 55.8626L79.1665 57.2451H80.5193L80.5464 55.8626L81.1687 55.8355V59.4681H80.5193V57.8416H79.1665V59.4681H78.4631L78.4523 57.6897Z" fill="#0066B3"/>
<path d="M81.9263 59.4681V57.6518V55.8355H82.5756V59.4681H81.9263Z" fill="#0066B3"/>
<path d="M83.2682 57.6897C83.2628 56.7084 83.2791 55.8897 83.3061 55.8734C83.3332 55.8517 83.6308 55.8355 83.9771 55.8355C84.3613 55.8355 84.7076 55.8626 84.8754 55.9114C85.054 55.9656 85.2433 56.0794 85.4327 56.2529C85.6438 56.4427 85.752 56.5945 85.8278 56.8114C85.8981 57.0066 85.936 57.2506 85.9414 57.5162C85.9414 57.7385 85.9252 58.0205 85.8981 58.1398C85.8765 58.259 85.8169 58.4596 85.7574 58.5898C85.7033 58.7145 85.5572 58.9151 85.4327 59.0398C85.265 59.197 85.1027 59.2892 84.8483 59.3651C84.5886 59.441 84.3397 59.4681 83.2791 59.4681L83.2682 57.6897Z" fill="#0066B3"/>
<path d="M92.8515 58.8988C92.7649 58.7091 92.7487 58.5139 92.7487 57.2614V55.8355H93.3981V57.1638C93.3981 58.3295 93.4089 58.5139 93.4955 58.6548C93.5442 58.7416 93.6416 58.8392 93.7119 58.8717C93.7768 58.8988 93.9392 58.9259 94.0745 58.9259C94.2151 58.9259 94.3775 58.888 94.4587 58.8338C94.5398 58.7795 94.6372 58.6711 94.6751 58.5898C94.7346 58.4759 94.7509 58.1289 94.7509 55.8355H95.4002V57.1801C95.4002 57.9175 95.3731 58.6115 95.3461 58.7253C95.3136 58.8338 95.2 59.0235 95.0918 59.1428C94.9673 59.2783 94.7887 59.3976 94.6426 59.4464C94.5074 59.4898 94.2422 59.5223 94.0474 59.5223C93.8526 59.5223 93.6037 59.4952 93.4955 59.4681C93.3818 59.4356 93.2141 59.3488 93.1167 59.2675C93.0247 59.1808 92.9002 59.0181 92.8515 58.8988Z" fill="#0066B3"/>
<path d="M96.1037 59.4735V57.6572V55.8409H96.753V58.8771H98.3764V59.4735H96.1037Z" fill="#0066B3"/>
<path d="M98.9175 59.4735V57.6572V55.8409H99.5668V59.4735H98.9175Z" fill="#0066B3"/>
<path d="M108.322 57.6897C108.322 56.7084 108.338 55.8897 108.36 55.868C108.387 55.8517 108.544 55.8409 109.009 55.868L109.036 58.8771H110.606V59.4735H108.333L108.322 57.6897Z" fill="#0066B3"/>
<path d="M110.443 56.4373V56.1391V55.8409H113.42V56.4373H112.229V59.4735H111.58V56.4373H110.443Z" fill="#0066B3"/>
<path d="M113.798 59.4735V57.6572V55.8409L114.459 55.8355C114.908 55.8355 115.216 55.8626 115.422 55.9222C115.649 55.9927 115.784 56.0794 115.99 56.2909C116.185 56.4861 116.298 56.6596 116.363 56.871C116.439 57.1042 116.461 57.2831 116.439 57.7114C116.423 58.156 116.39 58.3078 116.266 58.5789C116.185 58.7578 116.049 58.9585 115.968 59.0344C115.892 59.1048 115.692 59.2296 115.53 59.3055C115.265 59.4302 115.157 59.4464 113.798 59.4735Z" fill="#0066B3"/>
<path d="M122.078 57.6301C122.262 56.7192 122.418 55.9439 122.435 55.9005C122.451 55.8571 122.527 55.8355 122.797 55.868L123.144 56.9795C123.338 57.5867 123.506 58.1072 123.528 58.1289C123.549 58.1506 123.641 57.9337 123.739 57.6409C123.831 57.3482 123.993 56.8277 124.296 55.8409L124.642 55.868L124.978 57.5217C125.162 58.4271 125.33 59.2404 125.378 59.4735H125.054C124.875 59.4735 124.729 59.4573 124.729 59.4464C124.729 59.4302 124.68 59.1536 124.615 58.8338C124.556 58.5139 124.486 58.1235 124.453 57.9663C124.426 57.809 124.383 57.6897 124.361 57.7006C124.339 57.7114 124.177 58.1289 123.999 58.6277C123.695 59.4681 123.663 59.5278 123.544 59.5169C123.436 59.5006 123.382 59.3922 123.111 58.6494C122.943 58.1777 122.781 57.7711 122.754 57.7385C122.716 57.706 122.646 57.9554 122.543 58.5084C122.456 58.9639 122.375 59.3651 122.364 59.4031C122.354 59.4464 122.24 59.4735 122.05 59.4735C121.802 59.4735 121.753 59.4573 121.753 59.3759C121.753 59.3217 121.899 58.5356 122.078 57.6301Z" fill="#0066B3"/>
<path d="M125.757 59.4735V57.6572V55.8409H128.03V56.4373H126.407V57.2506H127.543V57.847H126.407V58.8771H128.03V59.4735H125.757Z" fill="#0066B3"/>
<path d="M120.086 58.0638C120.075 57.9283 120.081 57.7873 120.097 57.7494C120.124 57.6952 120.286 57.6843 121.401 57.7114V58.3078H120.102L120.086 58.0638Z" fill="#0066B3"/>
</g>
<g id="Vector_7">
<path d="M104.231 56.5619C104.296 56.4968 104.393 56.4318 104.436 56.4155C104.48 56.3938 104.636 56.3884 104.788 56.3938C104.961 56.4046 105.123 56.4534 105.232 56.5293C105.345 56.6053 105.443 56.7408 105.502 56.9035C105.567 57.0824 105.6 57.3209 105.6 57.6517C105.6 58.0637 105.578 58.183 105.464 58.4107C105.383 58.568 105.248 58.7306 105.14 58.8065C105.004 58.8933 104.875 58.9258 104.664 58.9258C104.436 58.9258 104.35 58.8987 104.214 58.774C104.122 58.6927 104.009 58.5192 103.96 58.3836C103.895 58.2156 103.868 57.977 103.868 57.6246C103.868 57.2071 103.89 57.0715 103.987 56.8926C104.047 56.7733 104.16 56.6215 104.231 56.5619Z" fill="white"/>
<path d="M67.4776 57.4077V56.9197V56.4318H67.8131C68.0728 56.4263 68.1919 56.4534 68.3001 56.5402C68.4246 56.6269 68.4516 56.692 68.4516 56.8655C68.4516 56.9848 68.4354 57.1203 68.4083 57.1691C68.3867 57.2179 68.3055 57.2938 68.2189 57.3318C68.1378 57.3752 67.9375 57.4077 67.4776 57.4077Z" fill="white"/>
<path d="M83.9439 57.7059C83.9385 57.0824 83.9439 56.5402 83.9602 56.5022C83.971 56.4534 84.0846 56.4318 84.2903 56.4318C84.5175 56.4318 84.6636 56.4697 84.8206 56.5619C84.9504 56.6378 85.0803 56.7733 85.1398 56.898C85.1993 57.0119 85.2535 57.2667 85.2697 57.4619C85.2859 57.7059 85.2697 57.9065 85.2048 58.1125C85.1561 58.2752 85.0532 58.4758 84.9829 58.5571C84.9071 58.6439 84.7773 58.7469 84.6853 58.7903C84.5879 58.8391 84.4093 58.8662 83.9548 58.8445L83.9439 57.7059Z" fill="white"/>
<path d="M87.1744 57.4077V56.9197V56.4318H87.4991C87.6777 56.4318 87.8887 56.4643 87.9699 56.5077C88.0565 56.5456 88.1376 56.6378 88.1593 56.7083C88.1809 56.7788 88.2026 56.8926 88.2026 56.9577C88.2026 57.0282 88.1322 57.1529 88.0456 57.245C87.8995 57.3914 87.8562 57.4077 87.1744 57.4077Z" fill="white"/>
<path d="M114.474 58.8445L114.458 57.6354L114.447 56.4318H114.782C115.037 56.4372 115.178 56.4643 115.324 56.5565C115.437 56.6215 115.583 56.7733 115.648 56.8926C115.751 57.0715 115.773 57.1908 115.773 57.5975C115.767 57.9824 115.746 58.1288 115.654 58.3023C115.594 58.4216 115.47 58.5842 115.372 58.6656C115.28 58.7523 115.15 58.8336 115.08 58.8499C115.015 58.8662 114.853 58.8716 114.474 58.8445Z" fill="white"/>
<path d="M58.9766 58.2156L59.1822 57.6246C59.2904 57.2938 59.3986 57.0444 59.4203 57.0661C59.4365 57.0878 59.5285 57.3426 59.6205 57.6354C59.7125 57.9282 59.7882 58.1776 59.7882 58.1884C59.7882 58.2047 59.6097 58.2156 58.9766 58.2156Z" fill="white"/>
<path d="M72.0717 58.1505C72.0717 58.1125 72.1529 57.8469 72.2449 57.5541C72.3369 57.2613 72.4343 57.0227 72.4613 57.0227C72.483 57.0227 72.5695 57.2505 72.6507 57.527C72.7265 57.8035 72.8022 58.0692 72.8131 58.1234C72.8293 58.2047 72.786 58.2156 72.4505 58.2156C72.1854 58.2156 72.0717 58.1993 72.0717 58.1505Z" fill="white"/>
<path d="M117.872 58.1234C117.883 58.0692 117.964 57.8035 118.045 57.527C118.132 57.2505 118.224 57.0227 118.251 57.0227C118.273 57.0227 118.365 57.2613 118.451 57.5541C118.538 57.8469 118.608 58.1125 118.608 58.1505C118.608 58.1993 118.5 58.2156 118.229 58.2156C117.899 58.2156 117.856 58.2047 117.872 58.1234Z" fill="white"/>
<path d="M90.5363 57.6793C90.6202 57.4217 90.6976 57.1844 90.7134 57.1474C90.7296 57.1095 90.7675 57.077 90.8 57.077C90.8324 57.077 90.9298 57.3318 91.0164 57.6354C91.0976 57.939 91.1625 58.1993 91.1571 58.2047C91.1517 58.2101 90.9731 58.2101 90.3725 58.1884L90.5294 57.7005L90.5363 57.6793Z" fill="white"/>
</g>
</g>
</g>
</svg>
