<svg width="25" height="26" viewBox="0 0 21 22" fill="none" xmlns="http://www.w3.org/2000/svg">
<path d="M17.9397 3.97596C16.9722 3.00359 15.8198 2.23262 14.5498 1.70802C13.2797 1.18343 11.9174 0.915706 10.5422 0.920473C4.7804 0.920473 0.0844223 5.59296 0.0844223 11.3259C0.0844223 13.1634 0.569849 14.9484 1.47739 16.5234L0 21.9204L5.5402 20.4714C7.07035 21.3009 8.79045 21.7419 10.5422 21.7419C16.304 21.7419 21 17.0694 21 11.3364C21 8.55395 19.9131 5.93946 17.9397 3.97596ZM10.5422 19.9779C8.9804 19.9779 7.45025 19.5579 6.11005 18.7704L5.79347 18.5814L2.501 19.4424L3.37688 16.2504L3.16583 15.9249C2.29812 14.5462 1.83738 12.9526 1.83618 11.3259C1.83618 6.55896 5.7407 2.67397 10.5317 2.67397C12.8533 2.67397 15.0377 3.57697 16.6734 5.21496C17.4833 6.01712 18.1251 6.97125 18.5617 8.02205C18.9982 9.07285 19.2208 10.1994 19.2166 11.3364C19.2377 16.1034 15.3332 19.9779 10.5422 19.9779ZM15.3121 13.5099C15.0482 13.3839 13.7608 12.7539 13.5286 12.6594C13.2859 12.5754 13.1171 12.5334 12.9377 12.7854C12.7583 13.0479 12.2623 13.6359 12.1146 13.8039C11.9668 13.9824 11.8085 14.0034 11.5447 13.8669C11.2809 13.7409 10.4367 13.4574 9.44472 12.5754C8.66382 11.8824 8.14673 11.0319 7.98844 10.7694C7.8407 10.5069 7.96734 10.3704 8.10452 10.2339C8.2206 10.1184 8.36834 9.92945 8.49497 9.78244C8.62161 9.63545 8.67437 9.51995 8.75879 9.35195C8.84321 9.17345 8.801 9.02645 8.73769 8.90045C8.67437 8.77445 8.14673 7.49345 7.93568 6.96845C7.72462 6.46446 7.50301 6.52746 7.34472 6.51696H6.83819C6.65879 6.51696 6.38442 6.57996 6.14171 6.84245C5.90955 7.10495 5.23417 7.73495 5.23417 9.01595C5.23417 10.2969 6.17337 11.5359 6.3 11.7039C6.42663 11.8824 8.14673 14.5074 10.7638 15.6309C11.3864 15.9039 11.8719 16.0614 12.2518 16.1769C12.8744 16.3764 13.4442 16.3449 13.898 16.2819C14.4045 16.2084 15.4492 15.6519 15.6603 15.0429C15.8819 14.4339 15.8819 13.9194 15.808 13.8039C15.7342 13.6884 15.5759 13.6359 15.3121 13.5099Z" fill="white"/>
</svg>
